<?xml version="1.0" encoding="utf-8"?>
<!-- Generator: Adobe Illustrator 26.5.0, SVG Export Plug-In . SVG Version: 6.00 Build 0)  -->
<svg version="1.1" id="Layer_1" xmlns="http://www.w3.org/2000/svg" xmlns:xlink="http://www.w3.org/1999/xlink" x="0px" y="0px"
	 viewBox="0 0 1920 1080" style="enable-background:new 0 0 1920 1080;" xml:space="preserve">
<style type="text/css">
	.st0{fill:none;}
	.st1{font-family:'ClickClackLight';}
	.st2{font-size:60px;}
	.st3{font-size:27px;}
	.st4{fill:none;stroke:#FF7F00;stroke-width:3;stroke-miterlimit:10;}
	.st5{fill:#FF7F00;}
</style>
<rect x="1336.2" y="201.3" class="st0" width="258.8" height="60.7"/>
<text transform="matrix(1 0 0 1 1336.2109 242.0552)" class="st1 st2">contents</text>
<rect x="1343" y="842.3" class="st0" width="338" height="60.7"/>
<text transform="matrix(1 0 0 1 1343 885.0547)"><tspan x="0" y="0" class="st1 st2">naviga</tspan><tspan x="212.9" y="0" class="st1 st2">-</tspan></text>
<rect x="1343" y="908.3" class="st0" width="338" height="60.7"/>
<text transform="matrix(1 0 0 1 1351.8379 928.6479)" class="st1 st3">(or use the arrow keys)</text>
<g>
	<g>
		<path class="st4" d="M1625,224c0,0,90,25.4,152-63"/>
		<g>
			<path class="st5" d="M1776.7,186c-0.8,0-1.5-0.7-1.4-1.6l1.2-22.9l-21.3,8.6c-0.8,0.3-1.6-0.1-2-0.8c-0.3-0.8,0.1-1.6,0.8-2
				l23.5-9.5c0.5-0.2,1-0.1,1.4,0.2s0.7,0.8,0.6,1.3l-1.3,25.3c0,0.3-0.1,0.6-0.3,0.8C1777.8,185.8,1777.3,186,1776.7,186z"/>
		</g>
	</g>
</g>
<g>
	<g>
		<path class="st4" d="M1702,863.5c0,0,106.1,7.7,146.9,89.7"/>
		<g>
			<path class="st5" d="M1826.8,941.5c0.4-0.7,1.3-0.9,2.1-0.5l19.7,11.7l2.3-22.8c0.1-0.8,0.8-1.4,1.6-1.3s1.4,0.8,1.3,1.6
				l-2.5,25.2c-0.1,0.5-0.4,1-0.8,1.2s-1,0.2-1.4-0.1l-21.7-12.9c-0.3-0.2-0.4-0.4-0.6-0.6C1826.5,942.5,1826.5,941.9,1826.8,941.5z
				"/>
		</g>
	</g>
</g>
<g>
	<path d="M780.5,383.6c1,0.1,2.2,0.1,3.4,0.1c2.2,0,4.6,0.1,6.6,0c1-0.1,1.8-0.5,2.6,0.1c0.5,1.4-0.1,3.4-0.1,5.1
		c0.1,0.8,0.5,1.5,0.2,2.2c-0.8,0.6-1.9,0.4-2.9,0.5c-1,0-2.1,0.1-3.1,0.1c-3.1,0.1-6.2-0.6-9.2-0.1c-0.7,3.5-0.5,8-0.5,12.4
		c0,1.6,0.3,3.4,0.7,4.9c0.6,2.6,1.1,5.9,3.6,6.3c1,0.2,2.4-0.1,3.1-0.6c2.6-1.8,0.7-7.7,2.2-10.7c1.7,0,4.4-0.2,5.9-0.3
		c1.2,3.6,1.8,8.1,0.5,11.3l-0.4,1.2c-1,2.8-2.6,5.1-4.6,6.7c-1.8,0.5-2.5,1.3-4.6,1.4c-1.4,0.1-3-0.3-4.2-0.6
		c-1.4-0.3-2.7-0.6-3.7-1.1c-2.2-0.9-4.6-4.2-5.4-6.9c-0.2-0.5-0.2-1-0.2-1.4c-0.2-0.6-0.5-1-0.6-1.6c-0.2-0.6-0.2-1.4-0.2-2.2
		c-0.1-0.6-0.2-1.4-0.2-2.1c-0.2-3.6-0.8-7.5-0.9-11.3c0-2.1,0.3-3.5,0.2-5.2c-2-0.6-4.1,0.3-6.2,0.2c-2.2-0.2-4.2-1-6.2-1.2
		c-0.3-1.2-0.2-2.7-0.2-4.2c-0.1-1.4-0.4-2.7,0.2-3.8c3.7,0.2,7.3-0.7,10.8-0.2c0.9,0.1,1.7,0.5,2.6,0.3c0.1-3.3-0.7-7.7-0.4-11.8
		c0.1-1,0.1-2.2,0.5-2.6c0.9-0.4,4.8,0.5,6.8,0.4c1,0,1.8-0.3,2.2,0.2c0.5,0.5,0.1,1.1,0.1,2c-0.1,1,0.2,1.8,0.2,2.4
		c-0.1,2-1,4.2-1.4,6.4c-0.2,1-0.2,2.1,0,3.1C778.3,383.5,779.4,383.5,780.5,383.6z"/>
	<path d="M810.3,372c0.2,2.8,0.2,6,0.6,8.9l0.4,4.2c0.1,0.8,0.3,1.7,0.4,2.6c0.1,0.7-0.2,1.5,0.2,2.2c0.7-0.2,0.8-1,1-1.8
		c1-1,1.4-2,2.4-2.9c1.4-1.3,3.7-2.4,6.5-2.6c2.2-0.1,3.9,0,6,0.6l1.1,0.6c1,0.4,1.5,0.7,2.5,1.3l1.2,1c0.6,0.6,1,1.7,1.4,2.9
		c0.2,0.5,0.6,1,0.6,1.3c0.2,0.6,0,1.2,0.1,1.8l0.3,1.8c0.4,2.4,0.9,5.1,0.6,7.9c-0.1,0.6-0.4,1.3-0.5,2c-0.1,0.6,0.1,1.2,0,1.8
		c-0.2,3-0.8,6.4-0.3,9.9c2.2,0.8,5.3-0.2,7.5,0.3c0.5,1,0.1,2.3,0.1,3.6c0,1.7,0.6,3.4-0.1,4.7c-2.2-0.1-4.5,0.2-6.5,0.2
		c-3.3-0.1-6.1-1.2-10.1-0.9c-1,0.1-2.1,0.6-3.2,0.5c-0.3-0.6-0.2-1.5-0.2-2.4c-0.1-0.8-0.5-1.6-0.5-2.3c0-0.2,0.2-0.6,0.2-1
		c0-0.3-0.2-0.8-0.2-1c0.1-0.6,0.6-1.3,0.8-1.4c1.4-0.8,3.3,0.6,4.5-0.2c0.8-0.5,0.9-3,0.8-4.5c0-1.8-0.2-3.4-0.3-5.1
		c-0.2-1.9,0.1-4.3-0.3-6.5l-0.3-1.4l-0.7-2.5c-0.1-0.5-0.1-1-0.2-1.4c-0.7-1.8-3.2-3.2-6.1-2.4c-1.9,0.5-4.2,2.9-5,4.8
		c-0.4,1-1,2.6-1.2,3.8c-0.2,1.4-0.2,3-0.6,4.6c-0.2,1.1-0.2,2.1-0.5,3.4c-0.2,1-0.3,2.2-0.3,3.4c0,1.8-0.2,3.8,0.5,4.8
		c0.4,0.6,2.1,1.4,3,1.5c1.1,0.2,1.9-0.1,3.3-0.2c0.6,0.6,0.2,1.5,0.2,2.3c0,1.1,0.7,2.2,0.2,3c-0.7,0.4-1.6,0.2-2.4,0.2
		c-0.7,0.1-1.4,0.4-2,0.5c-0.7,0.1-1.5,0-2.2,0.1c-2.2,0.3-4.5,0-7-0.2c-2.3-0.1-4.6,0.4-6.7,0.1c-0.3-0.7,0.1-1.5,0.2-2.5
		c0.1-1.8-0.5-4.1,0.2-5.4c1.5-0.5,3.4-0.5,4.8-1c0-7-0.2-13.7-0.5-20.3c-0.1-1.4-0.4-2.8-0.4-4.2c0-0.6,0.2-1.2,0.2-1.8
		c-0.1-0.8-0.3-1.7-0.4-2.6c-0.2-2.6,0.4-5.4-0.4-8c-2.2-0.2-5.4,0.6-7.3-0.2c-0.3-3-0.6-6.6,0.9-8.5c1.9-0.2,3.8-0.6,5.8-0.4
		c0.6,0,1,0.2,1.7,0.3c1,0.1,2.2,0,3.2,0.1c1,0,1.9-0.1,2.7,0.3C810.3,370.4,810.3,371.3,810.3,372z"/>
	<path d="M878.1,414c0.9,0,1.8,0.1,2.6,0.2c0.9,0.1,1.8,0,2.4,0.4c0.2,0.7-0.4,1.4-0.5,2.2c-0.2,2.2,0.3,5,0.3,7.1
		c-2.6,0.2-5.2-0.4-7.7-0.4c-3.2,0-6.3,0.6-9.5,0.6c-3.2-0.1-6.4-0.6-9.7-0.7c-3.1-0.2-6.2,0.2-9.3,0.1c-0.4-1.2-0.6-2.6-0.6-3.9
		c0-0.6,0.2-1,0.2-1.5c-0.1-1.3-0.8-2.5-0.3-3.7c4-1.4,9.3-0.1,13.5-0.5c0.4-0.6,0.6-1.8,0.6-2.8c0.2-1.7,0.1-3.6,0.2-5.5
		c0.1-1.8,0.3-3.7,0.4-5.5c0.1-0.8-0.1-1.5-0.1-2.3c0-2.1,0.8-4.4-0.1-6.5c-1.8-0.4-4.3-0.6-6.7-0.6c-1.7,0-3.8,0.6-4.6-0.7
		c-0.1-0.9,0.5-1.5,0.6-2.3c0.3-1.6-0.2-3.3,0.4-4.6c1.8,0,3.6,0.5,5.6,0.4c2,0,4.3-0.6,6.2-0.7c2.1-0.2,4.3-0.2,6,0.6
		c0.6,0.2,1.6,0.9,1.8,1.5c0.2,0.7,0,3.4-0.2,4.6c-0.1,0.9-0.4,1.7-0.6,2.7c-0.2,2.3-0.4,4.4-0.6,6.9c-0.1,0.5-0.2,1-0.2,1.4
		s0.2,0.8,0.2,1.2c0.2,4.2-0.2,8.1,0.6,12.4C871.4,415,874.9,413.9,878.1,414z M863.6,368c0.9,0,2.1,0.8,2.8,1.1
		c0.6,0.2,1,0.2,1.4,0.4c0.5,0.3,1.8,1.7,2.2,2.2c0.2,0.3,0.3,1,0.5,1.5c0.4,1.5,0.2,3.6-0.6,5.3c-0.8,1.8-6.1,2.5-8.2,1.4
		c-0.8-0.4-2.2-2.2-2.6-3.2c-0.8-1.8-0.4-3.9,0.5-5.7c0.9-1.5,2.2-2.3,3.9-2.9C863.5,368,863.5,368,863.6,368z"/>
	<path d="M914.6,381.6c2.1-0.2,4.2,0.8,6.3,1c0.8,0.1,1.8-0.2,2.4,0.3c0.5,1.3,0.2,2.6,0.1,3.9c0,1.4,0.1,2.7-0.2,4
		c-0.2,0.5-0.5,1-0.6,1.4c-0.2,1-0.2,2.3-0.3,3.4c-0.1,1.1-0.2,2.3-0.2,3.4c-2.5,0.6-5.5,0.5-7.4-0.5c0.1-1-0.2-1.7-0.6-2.5
		c-0.7-1.9-1.4-4.2-3.3-5.1c-3.1-1.6-8.9-1.2-11.7,0.7c-2.1,1.4-2.6,3.8,0.2,5l1.1,0.2c0.8,0.2,1.8,0.6,3.1,0.8l4.6,0.4
		c1.4,0.2,2.8,0.6,4.2,1c2.6,0.7,5.2,1.4,6.8,3c0.3,0.3,0.6,0.9,1,1.3c0.5,0.6,1,0.9,1.1,1.1c0.3,0.6,0.3,1.2,0.6,1.7
		c0.5,1.2,0.7,1.6,0.6,3.3c0,0.6,0.1,1.2,0,1.8c0,0.8-0.4,1.6-0.5,2.4c-0.2,1.2-0.2,1.9-0.5,3c-0.5,1.8-1.3,2.5-2.6,3.7l-1.1,1
		c-1,0.8-2.1,1-3.2,1.9c-3.1,0.6-6.7,1.9-10.9,1.1c-1.8-0.3-3.4-1.5-5-2.3c-1.3-0.7-2.5-1.4-3.7-1.8c-0.2,0.6-0.3,1.5-0.3,2.4
		c0,0.9,0.4,1.7-0.1,2.2c-0.6,0.5-1.7-0.1-2.6-0.3c-1.5-0.5-2.9-1-4.8-1c-0.6-1-0.2-1.8-0.2-3c0.2-1.1,0-2.2,0-3.4
		c0.1-1,0.3-2.1,0.3-3.1c0-0.3-0.1-0.7-0.1-1.1c0-0.8,0.3-1.4,0.4-2.2c0.3-1.9,0.1-4,1-5.4c1.1-0.2,2.6-0.2,3.9-0.2
		c1.3,0.2,2.6,0.3,3.4,0.8c0.4,1.8-0.2,4,0.4,5.7c0.3,0.9,1.8,2.5,2.6,2.9c2.4,1.2,5.6,1.9,9.3,1.8c2.5,0,5.2-0.8,6.2-2.2
		c1-1.3,0.8-4.5-0.5-5.8c-1.2-1.2-3.6-1.7-5.6-2c-4.7-0.7-9.7-0.6-13.1-2.7c-1.8-1-3-1.8-4.4-3.5c-0.6-0.7-1.2-1.4-1.4-2.2
		c-0.2-0.7-0.1-1.2-0.2-1.8c-0.1-0.5-0.4-0.7-0.4-1.5c-0.1-0.6,0.1-1.3,0.2-1.9c0.6-3.2,1.9-6.6,4-8.2c0.5-0.4,1.3-0.8,2-1.3
		c2.2-1.4,5.3-2.6,9.3-1.9c2.4,0.4,5,1,7.1,2.1c0.6,0.3,1.3,0.9,2.1,0.9C914.3,383.4,913.8,382.1,914.6,381.6z"/>
	<path d="M989.2,414c0.9,0,1.8,0.1,2.6,0.2c0.9,0.1,1.8,0,2.4,0.4c0.2,0.7-0.4,1.4-0.5,2.2c-0.2,2.2,0.3,5,0.3,7.1
		c-2.6,0.2-5.2-0.4-7.7-0.4c-3.2,0-6.3,0.6-9.5,0.6c-3.2-0.1-6.4-0.6-9.7-0.7c-3.1-0.2-6.1,0.2-9.3,0.1c-0.4-1.2-0.6-2.6-0.6-3.9
		c0-0.6,0.2-1,0.2-1.5c-0.1-1.3-0.8-2.5-0.3-3.7c4-1.4,9.3-0.1,13.5-0.5c0.4-0.6,0.6-1.8,0.6-2.8c0.2-1.7,0.1-3.6,0.2-5.5
		c0.1-1.8,0.3-3.7,0.4-5.5c0.1-0.8-0.1-1.5-0.1-2.3c0-2.1,0.8-4.4-0.1-6.5c-1.8-0.4-4.3-0.6-6.7-0.6c-1.7,0-3.8,0.6-4.6-0.7
		c-0.1-0.9,0.5-1.5,0.6-2.3c0.3-1.6-0.2-3.3,0.4-4.6c1.8,0,3.6,0.5,5.6,0.4c2,0,4.3-0.6,6.2-0.7c2.1-0.2,4.3-0.2,6,0.6
		c0.6,0.2,1.6,0.9,1.8,1.5c0.2,0.7,0,3.4-0.2,4.6c-0.1,0.9-0.4,1.7-0.6,2.7c-0.2,2.3-0.4,4.4-0.6,6.9c-0.1,0.5-0.2,1-0.2,1.4
		s0.2,0.8,0.2,1.2c0.2,4.2-0.2,8.1,0.6,12.4C982.4,415,986,413.9,989.2,414z M974.7,368c0.9,0,2.1,0.8,2.8,1.1
		c0.6,0.2,1,0.2,1.4,0.4c0.5,0.3,1.8,1.7,2.2,2.2c0.2,0.3,0.3,1,0.5,1.5c0.4,1.5,0.2,3.6-0.6,5.3c-0.8,1.8-6.1,2.5-8.2,1.4
		c-0.8-0.4-2.2-2.2-2.6-3.2c-0.8-1.8-0.4-3.9,0.5-5.7c0.9-1.5,2.2-2.3,3.9-2.9C974.6,368,974.6,368,974.7,368z"/>
	<path d="M1025.7,381.6c2.1-0.2,4.2,0.8,6.3,1c0.8,0.1,1.8-0.2,2.4,0.3c0.5,1.3,0.2,2.6,0.1,3.9c0,1.4,0.1,2.7-0.2,4
		c-0.2,0.5-0.5,1-0.6,1.4c-0.2,1-0.2,2.3-0.3,3.4c-0.1,1.1-0.2,2.3-0.2,3.4c-2.5,0.6-5.5,0.5-7.4-0.5c0.1-1-0.2-1.7-0.6-2.5
		c-0.7-1.9-1.4-4.2-3.3-5.1c-3.1-1.6-8.9-1.2-11.7,0.7c-2.1,1.4-2.6,3.8,0.2,5l1.1,0.2c0.8,0.2,1.8,0.6,3.1,0.8l4.6,0.4
		c1.4,0.2,2.8,0.6,4.2,1c2.6,0.7,5.2,1.4,6.8,3c0.3,0.3,0.6,0.9,1,1.3c0.5,0.6,1,0.9,1.1,1.1c0.3,0.6,0.3,1.2,0.6,1.7
		c0.5,1.2,0.7,1.6,0.6,3.3c0,0.6,0.1,1.2,0,1.8c0,0.8-0.4,1.6-0.5,2.4c-0.2,1.2-0.2,1.9-0.5,3c-0.5,1.8-1.3,2.5-2.6,3.7l-1.1,1
		c-1,0.8-2.1,1-3.2,1.9c-3.1,0.6-6.7,1.9-10.9,1.1c-1.8-0.3-3.4-1.5-5-2.3c-1.3-0.7-2.5-1.4-3.7-1.8c-0.2,0.6-0.3,1.5-0.3,2.4
		c0,0.9,0.4,1.7-0.1,2.2c-0.6,0.5-1.7-0.1-2.6-0.3c-1.5-0.5-2.9-1-4.8-1c-0.6-1-0.2-1.8-0.2-3c0.2-1.1,0-2.2,0-3.4
		c0.1-1,0.3-2.1,0.3-3.1c0-0.3-0.1-0.7-0.1-1.1c0-0.8,0.3-1.4,0.4-2.2c0.3-1.9,0.1-4,1-5.4c1.1-0.2,2.6-0.2,3.9-0.2
		c1.3,0.2,2.6,0.3,3.4,0.8c0.4,1.8-0.2,4,0.4,5.7c0.3,0.9,1.8,2.5,2.6,2.9c2.4,1.2,5.6,1.9,9.3,1.8c2.5,0,5.2-0.8,6.2-2.2
		c1-1.3,0.8-4.5-0.5-5.8c-1.2-1.2-3.6-1.7-5.6-2c-4.7-0.7-9.7-0.6-13.1-2.7c-1.8-1-3-1.8-4.4-3.5c-0.6-0.7-1.2-1.4-1.4-2.2
		c-0.2-0.7-0.1-1.2-0.2-1.8c-0.1-0.5-0.4-0.7-0.4-1.5c-0.1-0.6,0.1-1.3,0.2-1.9c0.6-3.2,1.9-6.6,4-8.2c0.5-0.4,1.3-0.8,2-1.3
		c2.2-1.4,5.3-2.6,9.3-1.9c2.4,0.4,5,1,7.1,2.1c0.6,0.3,1.3,0.9,2.1,0.9C1025.4,383.4,1024.8,382.1,1025.7,381.6z"/>
	<path d="M1106.8,414.2c0.4-0.9,0.6-2.2,1.4-2.4c1.1-0.2,2.6,1.7,3.4,2.2c0.6,0.4,1.4,0.4,1.8,1c0.1,1-0.6,1.6-1,2.4
		c-0.3,1-0.4,1.9-1,2.8c-1,1.4-3.1,2.6-5.2,3.1c-2.5,0.6-4.5,0-6.1-1c-0.6-0.3-2.1-1.8-2.5-1.8c-0.7-0.1-1.6,0.9-2.3,1.2
		c-2.4,1.2-6,1.9-9.2,2.6c-1,0.2-1.9,0.4-3.3,0.5c-1.7,0.1-2.6,0-4.1-0.4c-2.2-0.7-3.8-2-5.5-3.5c-1-1-1.6-1.7-2.5-2.9
		c-0.4-0.7-0.9-1.4-1.2-1.9c-1-2-1.4-6.1-0.2-8.4c0.7-1.3,2.2-2.4,3.6-3.4c2.5-1.5,5.9-2.1,8.9-3.3c4.2-1.7,10.2-1.5,15.2-2.8
		c0.2-0.5,0.3-1,0.3-1.5c0.1-2-0.3-2.6-2-3.4c-1.5-0.7-2.7-1.1-4.6-1.5c-0.7-0.2-1.4-0.4-1.8-0.5c-1.6-0.1-3.1,0.5-4.2,0.5
		c-0.4,0.5-0.2,1-0.5,1.6c-0.2,0.3-0.6,0.9-1.2,1.4c-1.2,1.4-2.1,2.2-4.6,2.6c-1.7,0.3-3,0.2-4.6-0.7c-0.5-0.7-1.2-1.5-1.8-2.4
		c-0.4-0.7-1-3-0.5-4.5c0.2-0.6,1.9-2.5,2.5-3c1.3-1,3-2.1,4.8-3c1.8-1,3.8-1.8,5.8-2.1c4.6-0.5,8.5,0.9,12.3,1.8
		c1.4,0.4,3.2,0.8,4,1.3c0.7,0.5,1.2,1.3,1.8,2.2c0.5,0.7,1.4,1.7,1.6,2.6c0.3,1.3,0.6,3.1,0.6,4.6c0,0.8-0.2,1.6-0.3,2.5
		c-0.2,1.8-0.1,3.4-0.4,5.1c-0.1,0.7-0.4,1.4-0.5,2.2c-0.2,1.2-0.2,2.6-0.2,3.8c-0.1,2.2,0.1,4.2,0.5,6.2c0.2,0.8,0.3,1.7,1,2.2
		C1106.2,416.2,1106.4,415.1,1106.8,414.2z M1082.3,407.9c-0.7,0.2-1.8,0.8-2.1,1.1c-0.7,0.6-1.6,2.2-1.4,3.6
		c0.2,0.7,1.5,1.6,2.5,1.8c1.6,0.4,4.4,0.2,6.5,0.1c2.2-0.2,3-1,4.8-1.6c1-0.5,1.8-0.6,2.2-1.1c0.2-0.5,0.4-1.2,0.5-1.9
		c0.3-1.6,0.6-2.7,0.1-4.3h-0.2c-1.8,0.4-4.1,1.8-7,2.2C1086.1,407.9,1083.9,407.4,1082.3,407.9z"/>
	<path d="M1133.5,387.9c1.3-0.3,1.9-1.4,2.6-2.3c1-1.3,2.5-2.1,4.6-2.7c0.5-0.2,1-0.4,1.4-0.4c0.9-0.2,2-0.1,3.1-0.2
		c3-0.2,5.9-0.2,8.1,1c0.6,1,1.5,1.8,1.9,2.6c0.2,0.5,0.3,1.2,0.5,1.8c0.3,1.1,0.6,2.5,0.6,4.1c0,0.4-0.2,0.7-0.2,1.1
		c-0.1,1.4,0.2,3,0.2,4.5c-0.1,1.3-0.4,2.6-0.4,4c-0.1,4.1-0.2,9.4,0.2,13.8c1.8,0.9,4.8,0,6.5,0.3c0.5,0.6,0.1,1.4,0.1,2.1
		c0.1,2.2,0.5,4.9-0.2,6.7c-0.8,0.4-1.7,0.2-2.6,0.2c-0.8,0-1.6,0.2-2.3,0.2c-1.1,0-2.2-0.5-3.3-0.6c-0.7-0.1-1.4,0-2.1-0.1
		c-2.4-0.2-5.4-0.7-8.4-0.7c-0.5-1.4-0.3-3.3-0.2-5c0.2-1.7,0-3.6,0.9-4.5c1.4-0.2,2.8,0.3,4.2,0.3c0.8-0.5,0.5-1.4,0.5-2.2
		c-0.3-5.4,0.3-12.9-1.8-17.3c-0.8-1.6-2.6-2.6-5.1-2.3c-2.7,0.4-5.1,2.2-6.8,3.6c-1,1.9-1,4.5-1,7c-0.1,3.6-0.7,7.4-0.6,10.7
		c2,0.6,5.4,0.2,6.9,1c0.2,1.1,0.1,2.2-0.1,3.4c-0.2,1.7-0.6,3.2-0.6,4.9c-2.4,0.5-5.1-0.3-7.9-0.4c-1.4,0-2.6-0.2-4-0.2
		c-0.6,0-1.4,0.2-2,0.1c-1.1-0.1-2.3-0.3-3.4-0.3c-1.2,0-2.4,0.2-3.4-0.1c-0.6-0.7-0.3-1.5-0.2-2.6c0.1-1.5-0.6-3.5,0.1-4.5
		c0.5-0.7,2.2-0.8,3.1-1c1.2-0.3,2.2-0.5,3-1.1c0.5-1-0.1-2-0.1-3.1c-0.1-1.7,0.1-3.4,0.1-5.2c0-2.2-0.4-4.5-0.6-6.7
		c-0.2-2.2-0.4-4.4-0.4-6.5c-1.7-0.5-3.9-0.3-5.8-0.6c-0.6-0.2-0.4-1-0.8-1.2c0.2-2.5-0.5-5.4,0.2-7.4c1.1-0.4,2.3-0.3,3.6-0.4
		c1.3-0.1,2.6-0.6,4.2-0.6c1.2-0.2,2.6-0.1,3.8-0.1c1.3,0.1,2.7-0.1,3.7,0.6C1133,383.3,1133.2,385.8,1133.5,387.9z"/>
	<path class="st5" d="M758.5,509.8c0.9,0,1.8,0.1,2.6,0.2c0.9,0.1,1.8,0,2.4,0.4c0.2,0.7-0.4,1.4-0.5,2.2c-0.2,2.2,0.3,5,0.3,7.1
		c-2.6,0.2-5.2-0.4-7.7-0.4c-3.2,0-6.3,0.6-9.5,0.6c-3.2-0.1-6.4-0.6-9.7-0.7c-3.1-0.2-6.2,0.2-9.3,0.1c-0.4-1.2-0.6-2.6-0.6-3.9
		c0-0.6,0.2-1,0.2-1.5c-0.1-1.3-0.8-2.5-0.3-3.7c4-1.4,9.3-0.1,13.5-0.5c0.4-0.6,0.6-1.8,0.6-2.8c0.2-1.7,0.1-3.6,0.2-5.5
		c0.1-1.8,0.3-3.7,0.4-5.5c0.1-0.8-0.1-1.5-0.1-2.3c0-2.1,0.8-4.4-0.1-6.5c-1.8-0.4-4.3-0.6-6.7-0.6c-1.7,0-3.8,0.6-4.6-0.7
		c-0.1-0.9,0.5-1.5,0.6-2.3c0.3-1.6-0.2-3.3,0.4-4.6c1.8,0,3.6,0.5,5.6,0.4c2,0,4.3-0.6,6.2-0.7c2.1-0.2,4.3-0.2,6,0.6
		c0.6,0.2,1.6,0.9,1.8,1.5c0.2,0.7,0,3.4-0.2,4.6c-0.1,0.9-0.4,1.7-0.6,2.7c-0.2,2.3-0.4,4.4-0.6,6.9c-0.1,0.5-0.2,1-0.2,1.4
		s0.2,0.8,0.2,1.2c0.2,4.2-0.2,8.1,0.6,12.4C751.8,510.8,755.4,509.8,758.5,509.8z M744,463.8c0.9,0,2.1,0.8,2.8,1.1
		c0.6,0.2,1,0.2,1.4,0.4c0.5,0.3,1.8,1.7,2.2,2.2c0.2,0.3,0.3,1,0.5,1.5c0.4,1.5,0.2,3.6-0.6,5.3c-0.8,1.8-6.1,2.5-8.2,1.4
		c-0.8-0.4-2.2-2.2-2.6-3.2c-0.8-1.8-0.4-3.9,0.5-5.7c0.9-1.5,2.2-2.3,3.9-2.9C744,463.8,744,463.8,744,463.8z"/>
	<path class="st5" d="M783.6,483.7c1.3-0.3,1.9-1.4,2.6-2.3c1-1.3,2.5-2.1,4.6-2.7c0.5-0.2,1-0.4,1.4-0.4c0.9-0.2,2-0.1,3.1-0.2
		c3-0.2,5.9-0.2,8.1,1c0.6,1,1.5,1.8,1.9,2.6c0.2,0.5,0.3,1.2,0.5,1.8c0.3,1.1,0.6,2.5,0.6,4.1c0,0.4-0.2,0.7-0.2,1.1
		c-0.1,1.4,0.2,3,0.2,4.5c-0.1,1.3-0.4,2.6-0.4,4c-0.1,4.1-0.2,9.4,0.2,13.8c1.8,0.9,4.8,0,6.5,0.3c0.5,0.6,0.1,1.4,0.1,2.1
		c0.1,2.2,0.5,4.9-0.2,6.7c-0.8,0.4-1.7,0.2-2.6,0.2c-0.8,0-1.6,0.2-2.3,0.2c-1.1,0-2.2-0.5-3.3-0.6c-0.7-0.1-1.4,0-2.1-0.1
		c-2.4-0.2-5.4-0.7-8.4-0.7c-0.5-1.4-0.3-3.3-0.2-5c0.2-1.7,0-3.6,0.9-4.5c1.4-0.2,2.8,0.3,4.2,0.3c0.8-0.5,0.5-1.4,0.5-2.2
		c-0.3-5.4,0.3-12.9-1.8-17.3c-0.8-1.6-2.6-2.6-5.1-2.3c-2.7,0.4-5.1,2.2-6.8,3.6c-1,1.9-1,4.5-1,7c-0.1,3.6-0.7,7.4-0.6,10.7
		c2,0.6,5.4,0.2,6.9,1c0.2,1.1,0.1,2.2-0.1,3.4c-0.2,1.7-0.6,3.2-0.6,4.9c-2.4,0.5-5.1-0.3-7.9-0.4c-1.4,0-2.6-0.2-4-0.2
		c-0.6,0-1.4,0.2-2,0.1c-1.1-0.1-2.3-0.3-3.4-0.3c-1.2,0-2.4,0.2-3.4-0.1c-0.6-0.7-0.3-1.5-0.2-2.6c0.1-1.5-0.6-3.5,0.1-4.5
		c0.5-0.7,2.2-0.8,3.1-1c1.2-0.3,2.2-0.5,3-1.1c0.5-1-0.1-2-0.1-3.1c-0.1-1.7,0.1-3.4,0.1-5.2c0-2.2-0.4-4.5-0.6-6.7
		c-0.2-2.2-0.4-4.4-0.4-6.5c-1.7-0.5-3.9-0.3-5.8-0.6c-0.6-0.2-0.4-1-0.8-1.2c0.2-2.5-0.5-5.4,0.2-7.4c1.1-0.4,2.3-0.3,3.6-0.4
		c1.3-0.1,2.6-0.6,4.2-0.6c1.2-0.2,2.6-0.1,3.8-0.1c1.3,0.1,2.7-0.1,3.7,0.6C783,479.2,783.3,481.6,783.6,483.7z"/>
	<path class="st5" d="M835.9,479.4c1,0.1,2.2,0.1,3.4,0.1c2.2,0,4.6,0.1,6.6,0c1-0.1,1.8-0.5,2.6,0.1c0.5,1.4-0.1,3.4-0.1,5.1
		c0.1,0.8,0.5,1.5,0.2,2.2c-0.8,0.6-1.9,0.4-2.9,0.5c-1,0-2.1,0.1-3.1,0.1c-3.1,0.1-6.2-0.6-9.2-0.1c-0.7,3.5-0.5,8-0.5,12.4
		c0,1.6,0.3,3.4,0.7,4.9c0.6,2.6,1.1,5.9,3.6,6.3c1,0.2,2.4-0.1,3.1-0.6c2.6-1.8,0.7-7.7,2.2-10.7c1.7,0,4.4-0.2,5.9-0.3
		c1.2,3.6,1.8,8.1,0.5,11.3l-0.4,1.2c-1,2.8-2.6,5.1-4.6,6.7c-1.8,0.5-2.5,1.3-4.6,1.4c-1.4,0.1-3-0.3-4.2-0.6
		c-1.4-0.3-2.7-0.6-3.7-1.1c-2.2-0.9-4.6-4.2-5.4-6.9c-0.2-0.5-0.2-1-0.2-1.4c-0.2-0.6-0.5-1-0.6-1.6c-0.2-0.6-0.2-1.4-0.2-2.2
		c-0.1-0.6-0.2-1.4-0.2-2.1c-0.2-3.6-0.8-7.5-0.9-11.3c0-2.1,0.3-3.5,0.2-5.2c-2-0.6-4.1,0.3-6.2,0.2c-2.2-0.2-4.2-1-6.2-1.2
		c-0.3-1.2-0.2-2.7-0.2-4.2c-0.1-1.4-0.4-2.7,0.2-3.8c3.7,0.2,7.3-0.7,10.8-0.2c0.9,0.1,1.7,0.5,2.6,0.3c0.1-3.3-0.7-7.7-0.4-11.8
		c0.1-1,0.1-2.2,0.5-2.6c0.9-0.4,4.8,0.5,6.8,0.4c1,0,1.8-0.3,2.2,0.2c0.5,0.5,0.1,1.1,0.1,2c-0.1,1,0.2,1.8,0.2,2.4
		c-0.1,2-1,4.2-1.4,6.4c-0.2,1-0.2,2.1,0,3.1C833.7,479.3,834.9,479.3,835.9,479.4z"/>
	<path class="st5" d="M886.8,500.7c-1.3,0.2-2.5,0.8-3.8,1c-4.1,0.7-8.4,0.5-12.9,0.7c-2.5,0.1-5-0.3-7.3,0.3
		c-0.3,1.7,0.2,3,0.8,4.1c1,1.9,3.3,3.9,5.8,4.6c0.9,0.2,2.2,0.4,3,0.5c3.8,0.5,7.2-1,9.1-2.8l1.5-1.8c0.6-0.6,1-1.4,1.7-1.4
		c1.1-0.1,2.2,1.2,2.9,1.8c1.1,0.8,2.1,1.4,2.6,2.1c0,1-0.8,1.5-1.4,2.2c-1,1.3-2.1,2.4-3.3,3.6c-1,1-1.7,1.8-2.9,2.6
		c-1.4,1-3.2,1.5-5.4,1.9c-1.3,0.3-2.9,0.6-4.7,0.4c-1.1-0.1-2.7-0.6-4.1-1.2c-1.3-0.5-2.7-1-3.7-1.6c-0.5-0.3-1-0.9-1.5-1.3
		c-0.5-0.3-1.1-0.6-1.5-1c-1-0.8-1.8-2.1-2.8-3.2c-1-1-2.2-1.9-2.7-3.2c-0.3-0.8-0.6-1.9-0.9-3c-0.7-1.9-1.4-4.6-1.5-7.1
		c-0.2-1.5,0.2-3,0.3-4.3c0.2-1.8,0.6-3.1,1.3-4.5l0.9-2c0.6-1.1,1.8-3.1,2.7-4.2c1.6-1.8,4.1-2.6,6.6-4.1c1.8-1,3.8-1.8,5.3-2.2
		c0.6-0.2,2.2-0.5,2.6-0.4c1.9,0.4,4.9,1.1,6.5,2.1c0.6,0.4,1.1,1,1.9,1.6c0.6,0.4,1.4,0.8,2,1.3c0.7,0.6,1.3,1.5,1.9,2.3
		c0.6,0.9,1.4,1.5,1.9,2.2c0.4,0.6,0.7,1.6,1.1,2.4c0.4,0.9,0.9,1.8,1,2.5c0.1,0.6,0,1.3,0.1,1.9c0.3,2.2,0.6,4.9-0.2,6.9
		C888.8,500.6,887.8,500.4,886.8,500.7z M875.3,488c-1.1-0.6-3.5-1.8-5.3-1c-0.6,0.3-1.8,0.7-2.4,1.1c-1.3,0.9-2.1,2.6-3,3.8
		c-0.5,0.6-1.3,1-1.1,1.8c1.8,0.3,3.5-0.5,5.5-0.7c1.4-0.2,3-0.2,4.6-0.2c2,0,4.1,0.4,5.9,0.2c0.6,0,1.3-0.2,1.7-0.6
		c-0.2-0.8-1-1.3-1.7-1.8C878.1,489.6,876.9,488.8,875.3,488z"/>
	<path class="st5" d="M922.8,488.7c-2.2,1.2-3.7,2.5-5,4.8c-1,1.7-1.8,3-1.5,5.8c0,0.3,0.2,0.7,0.2,1.1c0,1-0.2,2-0.1,3.1
		c0,2.1,0.5,3.9,0.2,6.2c2.3,0.5,4.6-0.2,6.8,0.4c1,0.2,1.9,1,3.1,1.2c1.1,0.2,2.3,0.2,3.4,0.7c0.5,1.4-0.2,3.1-0.2,4.8
		c0,1,0.3,1.8,0.2,2.6c-3,0.6-6-0.1-9.1,0c-2.3,0-4.7,0.4-7,0.6c-0.4,0-0.7-0.2-1.1-0.1c-1.6,0-3.2,0.4-4.8,0.4
		c-1.7,0.1-3.6,0.1-5.4-0.2c-1.2-0.2-2.6-0.8-4-1c-0.6-0.2-1.3,0.2-1.8-0.2c-1-1.3-0.2-3.6-0.1-5.7c0.2-1.5,0.2-3,0.3-4.2
		c3-0.6,6.7,0,10.1,0.1c0.5-7,1.1-15,1.2-21.7c-1.6-0.5-3.6,0.3-5.4,0.4c-2.2,0.1-4.4-0.1-6.5-0.1c-0.4-0.2-0.3-0.8-0.8-0.9
		c-0.2-2.4,0.5-4.3,0.7-6.4c0.1-0.6-0.2-1.4,0.2-1.8c4-0.2,8-0.4,11.8-0.4c1.4,0,2.9,0.2,4.3,0.3c0.8,0,1.2-0.4,1.9,0
		c0.7,0.6-0.2,2.2,0.3,3.2c1-0.2,1.8-1,2.8-1.4c1.8-0.9,4-1.5,6.1-2.2c1.4-0.6,2.6-0.8,4.5-1c0.9-0.1,2-0.2,3,0.1
		c0.2,0.1,0.5,0.4,0.8,0.6c0.3,0.2,0.7,0.1,1,0.2l0.7,0.6c0.7,0.5,2,1,2.5,1.6l1.1,1.3c0.4,0.5,0.9,0.9,1.1,1.3
		c0.2,0.2,0.2,0.6,0.3,0.9c0.2,0.2,0.6,0.3,0.7,0.6c0.2,0.2,0.2,0.6,0.3,0.9c0.3,0.6,0.6,0.9,0.9,1.7c0.9,2.2-0.1,5.6-1.3,7.1
		c-1.8,2.2-6.8,2.9-9.3,1c-0.8-0.7-1.4-2-1.8-3.3c-0.2-0.4-0.4-1-0.3-1.3c0-1,1-1.3,1-2.4C926.9,487,924.2,487.8,922.8,488.7z"/>
	<path class="st5" d="M981.9,510.1c0.4-0.9,0.6-2.2,1.4-2.4c1.1-0.2,2.6,1.7,3.4,2.2c0.6,0.4,1.4,0.4,1.8,1c0.1,1-0.6,1.6-1,2.4
		c-0.3,1-0.4,1.9-1,2.8c-1,1.4-3.1,2.6-5.2,3.1c-2.5,0.6-4.5,0-6.1-1c-0.6-0.3-2.1-1.8-2.5-1.8c-0.7-0.1-1.6,0.9-2.3,1.2
		c-2.4,1.2-6,1.9-9.2,2.6c-1,0.2-1.9,0.4-3.3,0.5c-1.7,0.1-2.6,0-4.1-0.4c-2.2-0.7-3.8-2-5.5-3.5c-1-1-1.6-1.7-2.5-2.9
		c-0.4-0.7-0.9-1.4-1.2-1.9c-1-2-1.4-6.1-0.2-8.4c0.7-1.3,2.2-2.4,3.6-3.4c2.5-1.5,5.9-2.1,8.9-3.3c4.2-1.7,10.2-1.5,15.2-2.8
		c0.2-0.5,0.3-1,0.3-1.5c0.1-2-0.3-2.6-2-3.4c-1.5-0.7-2.7-1.1-4.6-1.5c-0.7-0.2-1.4-0.4-1.8-0.5c-1.6-0.1-3.1,0.5-4.2,0.5
		c-0.4,0.5-0.2,1-0.5,1.6c-0.2,0.3-0.6,0.9-1.2,1.4c-1.2,1.4-2.1,2.2-4.6,2.6c-1.7,0.3-3,0.2-4.6-0.7c-0.5-0.7-1.2-1.5-1.8-2.4
		c-0.4-0.7-1-3-0.5-4.5c0.2-0.6,1.9-2.5,2.5-3c1.3-1,3-2.1,4.8-3c1.8-1,3.8-1.8,5.8-2.1c4.6-0.5,8.5,0.9,12.3,1.8
		c1.4,0.4,3.2,0.8,4,1.3c0.7,0.5,1.2,1.3,1.8,2.2c0.5,0.7,1.4,1.7,1.6,2.6c0.3,1.3,0.6,3.1,0.6,4.6c0,0.8-0.2,1.6-0.3,2.5
		c-0.2,1.8-0.1,3.4-0.4,5.1c-0.1,0.7-0.4,1.4-0.5,2.2c-0.2,1.2-0.2,2.6-0.2,3.8c-0.1,2.2,0.1,4.2,0.5,6.2c0.2,0.8,0.3,1.7,1,2.2
		C981.2,512,981.5,511,981.9,510.1z M957.4,503.7c-0.7,0.2-1.8,0.8-2.1,1.1c-0.7,0.6-1.6,2.2-1.4,3.6c0.2,0.7,1.5,1.6,2.5,1.8
		c1.6,0.4,4.4,0.2,6.5,0.1c2.2-0.2,3-1,4.8-1.6c1-0.5,1.8-0.6,2.2-1.1c0.2-0.5,0.4-1.2,0.5-1.9c0.3-1.6,0.6-2.7,0.1-4.3h-0.2
		c-1.8,0.4-4.1,1.8-7,2.2C961.2,503.7,959,503.2,957.4,503.7z"/>
	<path class="st5" d="M1014.1,487.8c-1.8-0.4-3.8-1-6.1-0.4c-0.9,0.2-2.4,1.1-3.2,1.7c-1,0.8-2.6,2.9-3,4.2
		c-0.2,0.6-0.2,1.4-0.3,2.2c-0.5,3-0.8,7.2,0.2,9.9c0.3,0.7,1,1.5,1.5,2.3c0.5,0.8,1,1.8,1.4,2.3c2.1,2.2,6.5,2.6,10.2,1.4
		c2.2-0.6,3.6-2.2,4.8-3.7c0.5-1.4,1-3,1.8-4.1c2.2,0.7,4,2,5.8,3.2c0.6,0.4,1.4,0.6,1.9,1.1c0.2,0.8-0.6,1.4-1,2
		c-0.4,0.6-0.6,1.4-1,2c-0.3,0.5-1,1.2-1.8,1.8c-1.1,1-1.7,1.6-3,2.5c-1,0.6-2.3,1.4-3.5,2c-3,1.3-5.6,2.7-9.1,1.4
		c-2.3,0-4.9-0.6-6.9-1.5c-0.7-0.3-1.3-0.9-2-1.4c-0.7-0.5-1.6-0.9-2-1.3c-0.6-0.6-1.1-1.5-1.7-2.2c-1.3-1.5-2.2-3.3-3.3-5.2
		c-1.1-2-1.8-3.3-1.8-6.2c0.1-1.3,0.5-3,0.6-4.7c0.1-0.7,0.2-1.5,0.3-2.3c0.2-0.8,0.2-1.6,0.3-2.3c0.1-0.6,0.5-1,0.6-1.6
		c0.1-0.6,0.1-1.2,0.2-1.8c1-3.7,3.3-5.8,6.2-7.6c0.5-0.3,1-0.6,1.4-0.8c1.2-0.6,2.2-1,3.7-1.6c3.5-1.5,9.1-2,13.1-0.6
		c1.1,0.4,1.5,0.6,2.5,1.2c1.1,0.8,2.1,1.7,3,2.6c0.7,0.7,1.5,1.4,1.9,2c0.2,0.2,0.2,0.6,0.3,0.9c0.2,0.3,0.4,0.5,0.6,0.7
		c0.2,0.2,0.2,0.6,0.3,0.9c0.2,0.3,0.5,0.4,0.6,0.6c0.3,0.6,0.4,1.6,0.6,2.5c0.2,0.7,0.6,1.7,0.6,2.3c-0.1,0.5-0.6,1.9-0.9,2.5
		c-0.3,0.4-1.4,1.2-2.2,1.9c-1.2,1-2.4,1.9-4.2,2c-1.6,0.1-3.8-0.5-5-1.6c-0.4-0.4-0.6-1-1-1.6c-0.2-0.5-0.6-1.1-0.6-1.8
		c-0.3-2.3,1.1-3.2,1.8-4.9C1016.2,488.1,1015.1,488,1014.1,487.8z"/>
	<path class="st5" d="M1056.5,479.4c1,0.1,2.2,0.1,3.4,0.1c2.2,0,4.6,0.1,6.6,0c1-0.1,1.8-0.5,2.6,0.1c0.5,1.4-0.1,3.4-0.1,5.1
		c0.1,0.8,0.5,1.5,0.2,2.2c-0.8,0.6-1.9,0.4-2.9,0.5c-1,0-2.1,0.1-3.1,0.1c-3.1,0.1-6.2-0.6-9.2-0.1c-0.7,3.5-0.5,8-0.5,12.4
		c0,1.6,0.3,3.4,0.7,4.9c0.6,2.6,1.1,5.9,3.6,6.3c1,0.2,2.4-0.1,3.1-0.6c2.6-1.8,0.7-7.7,2.2-10.7c1.7,0,4.4-0.2,5.9-0.3
		c1.2,3.6,1.8,8.1,0.5,11.3l-0.4,1.2c-1,2.8-2.6,5.1-4.6,6.7c-1.8,0.5-2.5,1.3-4.6,1.4c-1.4,0.1-3-0.3-4.2-0.6
		c-1.4-0.3-2.7-0.6-3.7-1.1c-2.2-0.9-4.6-4.2-5.4-6.9c-0.2-0.5-0.2-1-0.2-1.4c-0.2-0.6-0.5-1-0.6-1.6c-0.2-0.6-0.2-1.4-0.2-2.2
		c-0.1-0.6-0.2-1.4-0.2-2.1c-0.2-3.6-0.8-7.5-0.9-11.3c0-2.1,0.3-3.5,0.2-5.2c-2-0.6-4.1,0.3-6.1,0.2c-2.2-0.2-4.2-1-6.2-1.2
		c-0.3-1.2-0.2-2.7-0.2-4.2c-0.1-1.4-0.4-2.7,0.2-3.8c3.7,0.2,7.3-0.7,10.8-0.2c0.9,0.1,1.7,0.5,2.6,0.3c0.1-3.3-0.7-7.7-0.4-11.8
		c0.1-1,0.1-2.2,0.5-2.6c0.9-0.4,4.8,0.5,6.8,0.4c1,0,1.8-0.3,2.2,0.2c0.5,0.5,0.1,1.1,0.1,2c-0.1,1,0.2,1.8,0.2,2.4
		c-0.1,2-1,4.2-1.4,6.4c-0.2,1-0.2,2.1,0,3.1C1054.3,479.3,1055.4,479.3,1056.5,479.4z"/>
	<path class="st5" d="M1106.2,509.8c0.9,0,1.8,0.1,2.6,0.2c0.9,0.1,1.8,0,2.4,0.4c0.2,0.7-0.4,1.4-0.5,2.2c-0.2,2.2,0.3,5,0.3,7.1
		c-2.6,0.2-5.2-0.4-7.7-0.4c-3.2,0-6.3,0.6-9.5,0.6c-3.2-0.1-6.4-0.6-9.7-0.7c-3.1-0.2-6.1,0.2-9.3,0.1c-0.4-1.2-0.6-2.6-0.6-3.9
		c0-0.6,0.2-1,0.2-1.5c-0.1-1.3-0.8-2.5-0.3-3.7c4-1.4,9.3-0.1,13.5-0.5c0.4-0.6,0.6-1.8,0.6-2.8c0.2-1.7,0.1-3.6,0.2-5.5
		c0.1-1.8,0.3-3.7,0.4-5.5c0.1-0.8-0.1-1.5-0.1-2.3c0-2.1,0.8-4.4-0.1-6.5c-1.8-0.4-4.3-0.6-6.7-0.6c-1.7,0-3.8,0.6-4.6-0.7
		c-0.1-0.9,0.5-1.5,0.6-2.3c0.3-1.6-0.2-3.3,0.4-4.6c1.8,0,3.6,0.5,5.6,0.4c2,0,4.3-0.6,6.2-0.7c2.1-0.2,4.3-0.2,6,0.6
		c0.6,0.2,1.6,0.9,1.8,1.5c0.2,0.7,0,3.4-0.2,4.6c-0.1,0.9-0.4,1.7-0.6,2.7c-0.2,2.3-0.4,4.4-0.6,6.9c-0.1,0.5-0.2,1-0.2,1.4
		s0.2,0.8,0.2,1.2c0.2,4.2-0.2,8.1,0.6,12.4C1099.5,510.8,1103.1,509.8,1106.2,509.8z M1091.8,463.8c0.9,0,2.1,0.8,2.8,1.1
		c0.6,0.2,1,0.2,1.4,0.4c0.5,0.3,1.8,1.7,2.2,2.2c0.2,0.3,0.3,1,0.5,1.5c0.4,1.5,0.2,3.6-0.6,5.3c-0.8,1.8-6.1,2.5-8.2,1.4
		c-0.8-0.4-2.2-2.2-2.6-3.2c-0.8-1.8-0.4-3.9,0.5-5.7c0.9-1.5,2.2-2.3,3.9-2.9C1091.7,463.8,1091.7,463.8,1091.8,463.8z"/>
	<path class="st5" d="M1154.1,481.2c-0.1,0.9-0.2,2.4-0.2,3.3c-0.1,0.9,0.2,1.6-0.2,2.1c-0.4,0.6-1.8,0.6-2.6,0.7
		c-1,0.1-1.8,0.3-2.8,0.3c-0.5,0.5-0.9,1.1-1.2,1.8c-0.3,0.6-0.7,1.3-1,1.9c-0.6,1.4-0.8,2.9-1.2,4.3c-0.4,1.4-1,2.7-1.4,4.1
		c-0.2,0.7-0.3,1.4-0.6,2.1c-0.6,1.2-1,2.6-1.6,3.9c-0.5,1.3-0.6,2.3-1.2,3.4c-0.6,1.3-1.1,2.6-1.6,4c-0.3,1-0.6,2-1,3
		c-0.3,0.9-1,1.7-1.2,2.6c-0.2,0.6,0,1.4-0.6,1.9c-1.9,0.2-3.6,0.1-5.4,0c-0.4-0.2-0.6-0.6-0.6-1c-1-0.1-1.2-1-1.7-1.8
		c-0.7-1.2-1.1-2.7-2.1-3.8c0.2-0.9-0.6-1.4-0.9-2.2c-0.5-1.2-0.7-2.5-1.1-3.7l-0.7-1.7c-0.2-0.6-0.6-1-0.7-1.6
		c-0.3-0.6-0.3-1.4-0.6-2c-0.2-0.5-0.6-0.9-0.8-1.4l-1.1-3.1l-1.4-2.9c-1.1-2.3-2.1-5-3.4-7.1c-0.2-0.4-0.2-1-0.5-1.3
		c-1.4-0.2-2.9,0.1-4.6,0c-0.7-0.8-0.5-2.6-0.6-4.3c-0.1-1.4-0.7-3,0-3.7c4.8-0.7,10.4,0.2,15.7,0.2c1.4-0.1,2.6-0.2,4.2-0.2
		c0.7,0,1.6-0.3,2.2,0.3c0.2,0.8-0.6,1-0.8,1.8c-0.3,1.6,0.5,3.6,0,5c-1,0.5-2.6,0.6-3.8,0.9c0.8,3.2,1.8,6.4,2.7,9.7l0.2,1.4
		c0.2,0.6,0.6,1,0.8,1.6c0.2,0.7,0.4,1.5,0.6,2.3c0.2,0.7,0.6,1.4,0.7,2.2c0.2,0.7,0,1.7,0.6,2.2c0.6-0.4,0.5-1.3,0.6-2.1
		c1-3.4,2.2-7.1,3.1-10.7c0.6-2.2,1.5-4.4,2.2-6.9c-1.1-0.9-3.6,0.1-4.6-0.3c-0.6-2.2-0.2-5.4-0.1-7.5c2.6-0.8,5.3-0.2,7.9-0.2
		c1.2,0,2.4-0.2,3.6-0.3c2.2-0.2,4.3,0,6.5,0.2c0.7,0.1,1.6-0.2,2.3,0.2C1155,479.3,1154.3,480.2,1154.1,481.2z"/>
	<path class="st5" d="M1189.7,500.7c-1.3,0.2-2.5,0.8-3.8,1c-4.1,0.7-8.4,0.5-12.9,0.7c-2.5,0.1-5-0.3-7.3,0.3
		c-0.3,1.7,0.2,3,0.8,4.1c1,1.9,3.3,3.9,5.8,4.6c0.9,0.2,2.2,0.4,3,0.5c3.8,0.5,7.2-1,9.1-2.8l1.5-1.8c0.6-0.6,1-1.4,1.7-1.4
		c1.1-0.1,2.2,1.2,2.9,1.8c1.1,0.8,2.1,1.4,2.6,2.1c0,1-0.8,1.5-1.4,2.2c-1,1.3-2.1,2.4-3.3,3.6c-1,1-1.7,1.8-2.9,2.6
		c-1.4,1-3.2,1.5-5.4,1.9c-1.3,0.3-2.9,0.6-4.7,0.4c-1.1-0.1-2.7-0.6-4.1-1.2c-1.3-0.5-2.7-1-3.7-1.6c-0.5-0.3-1-0.9-1.5-1.3
		c-0.5-0.3-1.1-0.6-1.5-1c-1-0.8-1.8-2.1-2.8-3.2c-1-1-2.2-1.9-2.7-3.2c-0.3-0.8-0.6-1.9-0.9-3c-0.7-1.9-1.4-4.6-1.5-7.1
		c-0.2-1.5,0.2-3,0.3-4.3c0.2-1.8,0.6-3.1,1.3-4.5l0.9-2c0.6-1.1,1.8-3.1,2.7-4.2c1.6-1.8,4.1-2.6,6.6-4.1c1.8-1,3.8-1.8,5.3-2.2
		c0.6-0.2,2.2-0.5,2.6-0.4c1.9,0.4,4.9,1.1,6.5,2.1c0.6,0.4,1.1,1,1.9,1.6c0.6,0.4,1.4,0.8,2,1.3c0.7,0.6,1.3,1.5,1.9,2.3
		c0.6,0.9,1.4,1.5,1.9,2.2c0.4,0.6,0.7,1.6,1.1,2.4c0.4,0.9,0.9,1.8,1,2.5c0.1,0.6,0,1.3,0.1,1.9c0.3,2.2,0.6,4.9-0.2,6.9
		C1191.8,500.6,1190.7,500.4,1189.7,500.7z M1178.2,488c-1.1-0.6-3.5-1.8-5.3-1c-0.6,0.3-1.8,0.7-2.4,1.1c-1.3,0.9-2.1,2.6-3,3.8
		c-0.5,0.6-1.3,1-1.1,1.8c1.8,0.3,3.5-0.5,5.5-0.7c1.4-0.2,3-0.2,4.6-0.2c2,0,4.1,0.4,5.9,0.2c0.6,0,1.3-0.2,1.7-0.6
		c-0.2-0.8-1-1.3-1.7-1.8C1181,489.6,1179.8,488.8,1178.2,488z"/>
	<path d="M791.5,621.4c0.5,0.1,1,0.2,1.4,0.2c1.1,0,2.4-0.6,3.4-0.2c0.8,1.4,0.6,3.9,0.6,6.1c0,0.9,0.4,1.9-0.2,2.6
		c-4.6-0.1-9.9,0.4-15.4,0.1c-0.8-0.1-1.7-0.3-2.6-0.3c-2.2-0.2-4.2,0.2-6.2,0c-0.5,0-1.2-0.2-2-0.4c-0.8-0.2-1.6-0.2-1.8-0.6
		c-0.6-0.8-0.2-3.9-0.2-5.3c0-1-0.3-2,0.2-2.6c2.5-1,6.2,0.2,8.9-0.6c0.3-0.8,0-1.6-0.1-2.4c-0.1-2.1,0.1-4.2,0.2-6.4
		c0-2,0.2-4,0.4-6l0.2-5.7c0.2-3.8-0.1-7.6,0.3-11.3c0.2-1.7,0.5-3.4,0.1-5c-1.3-0.6-2.9-0.2-4.5-0.3c-1.1-0.1-2.7-0.3-4-0.2
		c-0.4-1-0.4-2.4-0.3-3.8c0-0.5,0.2-1,0.2-1.4c0-1-0.4-2.1-0.2-3.1c1.8-0.2,3.4,0,5-0.2c0.5-0.1,0.9-0.3,1.4-0.3
		c1-0.2,2.2,0,3.2-0.2c2-0.2,4.2-1,6.5-0.6c0.3,0.7-0.2,2.2,0.3,2.8c1.9-0.1,3.2-1.2,4.6-1.7c0.4-0.2,1-0.2,1.4-0.4
		c0.5-0.2,0.8-0.4,1.3-0.6c0.5-0.1,1,0,1.6-0.1c1-0.2,1.8-0.6,3.1-0.4c1.8,0.2,2.8,0.6,4.2,1.4c1.4,0.9,2.3,1.6,3.4,2.8
		c0.9,1,2.5,2.2,3.1,3.2c1,1.5,1.8,3.9,2.3,6.1c0.2,0.7,0.5,1.5,0.6,2.2c0,0.6-0.1,1.2,0,1.8c0,0.6,0.2,1.2,0.2,1.7
		c0,1.8-0.8,3.8-1.1,5.8c-0.2,1.1-0.2,2.9-0.6,4.2c-0.2,0.5-0.7,1.1-1,1.8c-0.7,1.8-1.7,4.3-2.8,5.8c-0.6,0.7-1.9,1.9-2.7,2.8
		c-1,1.1-1.6,1.7-3.4,2.5c-1.7,0.7-3.8,1.5-6.5,1.3c-0.3-0.1-0.6-0.3-1.1-0.4c-1.2-0.2-2.6-0.3-3.5-0.7c-1-0.4-2.6-1.5-3.3-1.1
		c-0.5,0.3-0.6,1.9-0.7,2.9c-0.1,1.1,0.1,2.2,0,3.1C786.3,621.9,789.1,621.3,791.5,621.4z M800.7,605.1c0.4-0.6,1.3-2.2,1.5-2.9
		c0.2-0.6,0.2-1.5,0.4-2.2c0.2-0.7,0.6-1.4,0.6-2.1c0.2-2.7-0.2-5.3-0.5-7.5c-0.2-1.3-0.4-2.8-0.8-3.5c-0.1-0.2-0.6-0.7-1-1.1
		c-1.1-1.2-1.9-1.7-3.4-2.5c-1.4-0.6-4-1.5-5.8-0.8c-1.5,0.6-3.1,1-4.3,2.1c-0.1,7.2-1,13-1.3,19.6c1.9,2.2,6.6,3.7,11,3.1
		C798.1,607.1,800.1,605.8,800.7,605.1z"/>
	<path d="M841.8,574.5c0.6,0.2,1.4,0.4,1.7,0.6c0.6,0.4,1,1.2,1.7,1.8c1,1,1.8,1.1,2.6,2.2c0.1,0.2,0.1,0.3,0.2,0.4
		c0.3,0.5,1.1,1.1,1.4,1.6c0.5,0.7,1,1.8,1.4,2.6l0.8,1.4c0.1,0.2,0.1,0.6,0.2,0.8c0.1,0.2,0.4,0.3,0.4,0.6c0.2,0.3,0.1,0.6,0.2,1
		c0.3,1.5,1.5,3.6,1.8,5.2c0.1,0.5,0,1,0.1,1.5c0.1,1.3,0.2,3.6-0.2,5.2c-0.2,0.6-0.6,1.5-1,2.3c-0.3,0.7-0.6,1.5-0.8,2.2
		c-0.2,0.7-0.7,1.4-1.1,2c-0.4,0.8-0.6,1.6-1,2.1c-0.9,1.1-2.5,2.4-4,3.4c-2.5,1.7-4.6,2.5-8.2,3c-2.2,0.3-4.2,0.4-6.2,0
		c-1.4-0.2-2.5-0.9-3.8-1.3c-1.3-0.4-2.8-0.5-3.8-1c-0.6-0.2-1.4-1-2.1-1.5c-1.9-1.5-3-3.3-4.2-5.7c-0.2-0.2-0.2-0.4-0.4-0.6
		c-0.5-1-0.7-2.9-1-4.6c-0.6-3.3-0.6-6.9,0-10.2c0.4-1.8,0.8-2.9,1.4-4.5l1.1-2.5c0.2-0.4,0.7-0.8,1.1-1.4c1-1.3,1.5-1.8,2.9-2.9
		c1.4-1,2.6-2,4.4-2.9c2.1-1,3.8-1.8,6.5-2.2C836.7,572.9,839.4,573.7,841.8,574.5z M828.1,584.8c-1.8,1.8-2.2,4.4-2.4,7.4
		c-0.5,4.3,0.2,8.1,1.8,10.7c0.6,1,1.9,2.5,2.6,3c1.8,1.2,6,1.7,8.5,1c0.8-0.2,1.8-1,2.4-1.4c2.5-2.2,4.2-5.8,4.2-10.4
		c0-4-1.8-6.9-3.1-9.2c-0.4-0.6-0.7-1.4-1.1-1.8c-0.7-0.8-2.9-2.3-4.2-2.4c-1.2-0.1-2.5,0.1-3.5,0.5
		C831.4,582.8,829.2,583.6,828.1,584.8z"/>
	<path d="M886.7,584.5c-2.2,1.2-3.7,2.5-5,4.8c-1,1.7-1.8,3-1.5,5.8c0,0.3,0.2,0.7,0.2,1.1c0,1-0.2,2-0.1,3.1c0,2.1,0.5,3.9,0.2,6.2
		c2.3,0.5,4.6-0.2,6.8,0.4c1,0.2,1.9,1,3.1,1.2c1.1,0.2,2.3,0.2,3.4,0.7c0.5,1.4-0.2,3.1-0.2,4.8c0,1,0.3,1.8,0.2,2.6
		c-3,0.6-6-0.1-9.1,0c-2.3,0-4.7,0.4-7,0.6c-0.4,0-0.7-0.2-1.1-0.1c-1.6,0-3.2,0.4-4.8,0.4c-1.7,0.1-3.6,0.1-5.4-0.2
		c-1.2-0.2-2.6-0.8-4-1c-0.6-0.2-1.3,0.2-1.8-0.2c-1-1.3-0.2-3.6-0.1-5.7c0.2-1.5,0.2-3,0.3-4.2c3-0.6,6.7,0,10.1,0.1
		c0.5-7,1.1-15,1.2-21.7c-1.6-0.5-3.6,0.3-5.4,0.4c-2.2,0.1-4.4-0.1-6.5-0.1c-0.4-0.2-0.3-0.8-0.8-0.9c-0.2-2.4,0.5-4.3,0.7-6.4
		c0.1-0.6-0.2-1.4,0.2-1.8c4-0.2,8-0.4,11.8-0.4c1.4,0,2.9,0.2,4.3,0.3c0.8,0,1.2-0.4,1.9,0c0.7,0.6-0.2,2.2,0.3,3.2
		c1-0.2,1.8-1,2.8-1.4c1.8-0.9,4-1.5,6.1-2.2c1.4-0.6,2.6-0.8,4.5-1c0.9-0.1,2-0.2,3,0.1c0.2,0.1,0.5,0.4,0.8,0.6
		c0.3,0.2,0.7,0.1,1,0.2l0.7,0.6c0.7,0.5,2,1,2.5,1.6l1.1,1.3c0.4,0.5,0.9,0.9,1.1,1.3c0.2,0.2,0.2,0.6,0.3,0.9
		c0.2,0.2,0.6,0.3,0.7,0.6c0.2,0.2,0.2,0.6,0.3,0.9c0.3,0.6,0.6,0.9,0.9,1.7c0.9,2.2-0.1,5.6-1.3,7.1c-1.8,2.2-6.8,2.9-9.3,1
		c-0.8-0.7-1.4-2-1.8-3.3c-0.2-0.4-0.4-1-0.3-1.3c0-1,1-1.3,1-2.4C890.8,582.8,888.1,583.6,886.7,584.5z"/>
	<path d="M932.4,575.2c1,0.1,2.2,0.1,3.4,0.1c2.2,0,4.6,0.1,6.6,0c1-0.1,1.8-0.5,2.6,0.1c0.5,1.4-0.1,3.4-0.1,5.1
		c0.1,0.8,0.5,1.5,0.2,2.2c-0.8,0.6-1.9,0.4-2.9,0.5c-1,0-2.1,0.1-3.1,0.1c-3.1,0.1-6.2-0.6-9.2-0.1c-0.7,3.5-0.5,8-0.5,12.4
		c0,1.6,0.3,3.4,0.7,4.9c0.6,2.6,1.1,5.9,3.6,6.3c1,0.2,2.4-0.1,3.1-0.6c2.6-1.8,0.7-7.7,2.2-10.7c1.7,0,4.4-0.2,5.9-0.3
		c1.2,3.6,1.8,8.1,0.5,11.3l-0.4,1.2c-1,2.8-2.6,5.1-4.6,6.7c-1.8,0.5-2.5,1.3-4.6,1.4c-1.4,0.1-3-0.3-4.2-0.6
		c-1.4-0.3-2.7-0.6-3.7-1.1c-2.2-0.9-4.6-4.2-5.4-6.9c-0.2-0.5-0.2-1-0.2-1.4c-0.2-0.6-0.5-1-0.6-1.6c-0.2-0.6-0.2-1.4-0.2-2.2
		c-0.1-0.6-0.2-1.4-0.2-2.1c-0.2-3.6-0.8-7.5-0.9-11.3c0-2.1,0.3-3.5,0.2-5.2c-2-0.6-4.1,0.3-6.1,0.2c-2.2-0.2-4.2-1-6.2-1.2
		c-0.3-1.2-0.2-2.7-0.2-4.2c-0.1-1.4-0.4-2.7,0.2-3.8c3.7,0.2,7.3-0.7,10.8-0.2c0.9,0.1,1.7,0.5,2.6,0.3c0.1-3.3-0.7-7.7-0.4-11.8
		c0.1-1,0.1-2.2,0.5-2.6c0.9-0.4,4.8,0.5,6.8,0.4c1,0,1.8-0.3,2.2,0.2c0.5,0.5,0.1,1.1,0.1,2c-0.1,1,0.2,1.8,0.2,2.4
		c-0.1,2-1,4.2-1.4,6.4c-0.2,1-0.2,2.1,0,3.1C930.2,575.2,931.3,575.2,932.4,575.2z"/>
	<path d="M975,571.3c-1.1,0.5-2.8,1.8-3.6,3c-0.6,1-0.8,2.3-0.4,3.6c1,0.2,2.2,0,3.4,0.1l1.4,0.3c1.4,0.2,2.9,0,3.8,0.6
		c0.5,1,0.1,2.2,0.2,3.4c0.1,1.2,0.6,2.4,0.7,3.4c-3.3,1.7-7-1.4-10.7,0.1c-1,3.8-0.2,8.5-0.2,12.7c0,1.5,0.3,3,0.2,4.3
		c-0.1,0.6-0.3,1-0.3,1.6c-0.1,1.3,0.2,2.6,0,3.8c0.4,0.4,1,0.2,1.6,0.2c1.2,0.2,2.8,0.4,4.5,0.5c1.1,0.1,2.6,0.2,3.5,0.2
		c0.6-0.1,1.1-0.3,1.6-0.2c1,0.2,1.4,1.4,1.8,2.2c-0.7,2.2,0.9,4.5,0.4,6.4c-1.1,0.6-2.2-0.3-3.4-0.6c-4.2-0.8-8.6,0.1-13.3-0.2
		l-2.6-0.3c-4.8-0.2-9.4-0.1-13.4,0c-0.7-0.8-0.5-2.3-0.5-3.8c0-1.4-0.3-3,0.2-3.9c3.5-0.5,8.1,0.1,11.7-0.6c0.5-0.8,0-1.7,0.1-2.9
		c0-0.5,0.2-1,0.2-1.5c0.1-0.5-0.1-0.9-0.1-1.4c0-0.7,0.2-1.4,0.2-2.2c0-0.5-0.1-1-0.1-1.5c0-1.1,0.2-2.2,0.3-3.2
		c0-1.8-0.2-3.3-0.2-5.2c0-0.9-0.2-2.1-0.2-3.2c-0.1-1.4,0-2.6-0.4-3c-0.3-0.3-1.9-0.5-2.8-0.5c-2.7-0.1-5.2,0.7-7.4-0.1
		c-0.2-0.4-0.2-1-0.6-1.2c0.3-1.9-0.3-4,0.4-5.6c4.2-0.4,7.6-0.5,11.8-0.4c0.6-1.3,0.3-2.9,0.5-4.2l0.3-1.7c0.3-1.5,0.8-3.1,1.2-4.6
		c0.5-0.9,1.4-1.4,2.3-1.9c0.8-0.6,1.5-1.3,2.5-1.7c0.3-0.2,0.8-0.3,1.3-0.5c0.4-0.2,0.9-0.5,1.3-0.6c1.8-0.5,4.2-0.6,6.1-0.7
		c1.5-0.2,2.9-0.2,4.2,0.4c0.8,0.3,1.8,1,2.8,1.5c1.7,0.9,3.4,2,4.3,3.4c0.3,0.5,0.6,1.4,1,2.1c0.3,0.7,0.9,1.5,1,2.2
		c0.3,1.5,0.2,3.5-0.4,4.7c-0.2,0.4-0.9,1-1.5,1.6c-1,0.9-1.7,1.4-2.8,2c-3,1.6-6.9,0.2-7.5-2.8c-0.2-1.6,0.4-2.6,0.5-4
		C978.4,570.6,976.5,570.7,975,571.3z"/>
	<path d="M1016.5,574.5c0.6,0.2,1.4,0.4,1.7,0.6c0.6,0.4,1,1.2,1.7,1.8c1,1,1.8,1.1,2.6,2.2c0.1,0.2,0.1,0.3,0.2,0.4
		c0.3,0.5,1.1,1.1,1.4,1.6c0.5,0.7,1,1.8,1.4,2.6l0.8,1.4c0.1,0.2,0.1,0.6,0.2,0.8c0.1,0.2,0.4,0.3,0.4,0.6c0.2,0.3,0.1,0.6,0.2,1
		c0.3,1.5,1.5,3.6,1.8,5.2c0.1,0.5,0,1,0.1,1.5c0.1,1.3,0.2,3.6-0.2,5.2c-0.2,0.6-0.6,1.5-1,2.3c-0.3,0.7-0.6,1.5-0.8,2.2
		c-0.2,0.7-0.7,1.4-1.1,2c-0.4,0.8-0.6,1.6-1,2.1c-0.9,1.1-2.5,2.4-4,3.4c-2.5,1.7-4.6,2.5-8.2,3c-2.2,0.3-4.2,0.4-6.2,0
		c-1.4-0.2-2.5-0.9-3.8-1.3c-1.3-0.4-2.8-0.5-3.8-1c-0.6-0.2-1.4-1-2.1-1.5c-1.9-1.5-3-3.3-4.2-5.7c-0.2-0.2-0.2-0.4-0.4-0.6
		c-0.5-1-0.7-2.9-1-4.6c-0.6-3.3-0.6-6.9,0-10.2c0.4-1.8,0.8-2.9,1.4-4.5l1.1-2.5c0.2-0.4,0.7-0.8,1.1-1.4c1-1.3,1.5-1.8,2.9-2.9
		c1.4-1,2.6-2,4.4-2.9c2.1-1,3.8-1.8,6.5-2.2C1011.4,572.9,1014.1,573.7,1016.5,574.5z M1002.7,584.8c-1.8,1.8-2.2,4.4-2.4,7.4
		c-0.5,4.3,0.2,8.1,1.8,10.7c0.6,1,1.9,2.5,2.6,3c1.8,1.2,6,1.7,8.5,1c0.8-0.2,1.8-1,2.4-1.4c2.5-2.2,4.2-5.8,4.2-10.4
		c0-4-1.8-6.9-3.1-9.2c-0.4-0.6-0.7-1.4-1.1-1.8c-0.7-0.8-2.9-2.3-4.2-2.4c-1.2-0.1-2.5,0.1-3.5,0.5
		C1006.1,582.8,1003.8,583.6,1002.7,584.8z"/>
	<path d="M1054.6,566.2c-0.2,2.1-0.1,4.3,0,6.5c0,0.6-0.2,1.3-0.2,1.8c0.1,0.6,0.2,1,0.2,1.5c0,0.5-0.2,1-0.2,1.5
		c0,0.9,0.1,1.8,0.1,2.6c0,1,0.1,2,0.1,3c-0.1,0.6-0.2,1.1-0.2,1.7c0,0.5,0.2,1,0.2,1.4c0,1-0.3,2.2-0.4,3.2c-0.2,1.2,0,2.4-0.1,3.6
		c-0.1,1-0.5,1.8-0.5,2.8c0,0.5,0.2,1,0.2,1.5c0.1,1.2-0.3,2.5-0.3,3.7c0.1,1.4,0.5,2.5,0.4,3.8c1.5,0.7,3.6,0.9,5.6,0.9h2
		c0.2,0,0.6-0.2,0.9-0.2c0.3,0,0.6,0.2,0.9,0.1c0.4,0,0.8-0.2,1.4-0.3c0.7-0.2,1.5,0,2.2,0c1-0.1,1.6-0.3,2.2,0
		c0.8,0.5,0.5,2.1,0.5,3.2c-0.1,1.9,0.3,4.1,0.2,5.6c-1,0.6-2.2,0.5-3.3,0.6c-1.1,0.1-2.3,0.2-3.5,0.2c-2.2,0-4.5-0.6-6.7-0.7
		c-3.4-0.2-7-0.2-10.5-0.1c-4.6,0.2-8.9,0.1-13.3,0.5c-0.2-3.4-0.7-7.5,1-9.5c3.9-0.5,7.9-0.6,12-0.4c0.5-1.2,0-2.3,0-3.6
		c-0.1-2.1,0.2-4.2,0.2-6.4c0-1.4-0.1-2.8-0.1-4.2c0.2-2.7,0.1-5.4,0.1-8.1c0-0.7,0.2-1.5,0.2-2.3c0-3-0.2-6.2,0.2-9.1
		c0.1-0.9,0.6-1.7,0.2-2.6c-2.8-0.6-6.4,0.4-9.7,0.2c-1-0.1-1.8-0.3-2.6-0.4c-1-0.1-1.9,0.2-2.6-0.4c-0.2-0.8-0.2-1.8-0.2-3
		c0.1-2.1,0.2-4.3,0.6-6c0.9-0.2,1.8-0.3,2.8-0.2c0.6,0.1,1.2,0.3,1.8,0.3c0.6,0,1.1-0.2,1.7-0.2c0.6,0,1.1,0.2,1.7,0.2
		c2.3,0,4.8-0.1,7.1,0c3.4,0.2,6.5-0.5,8.8,0.7C1055.3,561.8,1054.8,564,1054.6,566.2z"/>
	<path d="M1105.2,605.7c0.9,0,1.8,0.1,2.6,0.2c0.9,0.1,1.8,0,2.4,0.4c0.2,0.7-0.4,1.4-0.5,2.2c-0.2,2.2,0.3,5,0.3,7.1
		c-2.6,0.2-5.2-0.4-7.7-0.4c-3.2,0-6.3,0.6-9.5,0.6c-3.2-0.1-6.4-0.6-9.7-0.7c-3.1-0.2-6.1,0.2-9.3,0.1c-0.4-1.2-0.6-2.6-0.6-3.9
		c0-0.6,0.2-1,0.2-1.5c-0.1-1.3-0.8-2.5-0.3-3.7c4-1.4,9.3-0.1,13.5-0.5c0.4-0.6,0.6-1.8,0.6-2.8c0.2-1.7,0.1-3.6,0.2-5.5
		c0.1-1.8,0.3-3.7,0.4-5.5c0.1-0.8-0.1-1.5-0.1-2.3c0-2.1,0.8-4.4-0.1-6.5c-1.8-0.4-4.3-0.6-6.7-0.6c-1.7,0-3.8,0.6-4.6-0.7
		c-0.1-0.9,0.5-1.5,0.6-2.3c0.3-1.6-0.2-3.3,0.4-4.6c1.8,0,3.6,0.5,5.6,0.4c2,0,4.3-0.6,6.2-0.7c2.1-0.2,4.3-0.2,6,0.6
		c0.6,0.2,1.6,0.9,1.8,1.5c0.2,0.7,0,3.4-0.2,4.6c-0.1,0.9-0.4,1.7-0.6,2.7c-0.2,2.3-0.4,4.4-0.6,6.9c-0.1,0.5-0.2,1-0.2,1.4
		c0,0.4,0.2,0.8,0.2,1.2c0.2,4.2-0.2,8.1,0.6,12.4C1098.5,606.6,1102.1,605.6,1105.2,605.7z M1090.7,559.7c0.9,0,2.1,0.8,2.8,1.1
		c0.6,0.2,1,0.2,1.4,0.4c0.5,0.3,1.8,1.7,2.2,2.2c0.2,0.3,0.3,1,0.5,1.5c0.4,1.5,0.2,3.6-0.6,5.3c-0.8,1.8-6.1,2.5-8.2,1.4
		c-0.8-0.4-2.2-2.2-2.6-3.2c-0.8-1.8-0.4-3.9,0.5-5.7c0.9-1.5,2.2-2.3,3.9-2.9C1090.7,559.7,1090.7,559.7,1090.7,559.7z"/>
	<path d="M1139.9,574.5c0.6,0.2,1.4,0.4,1.7,0.6c0.6,0.4,1,1.2,1.7,1.8c1,1,1.8,1.1,2.6,2.2c0.1,0.2,0.1,0.3,0.2,0.4
		c0.3,0.5,1.1,1.1,1.4,1.6c0.5,0.7,1,1.8,1.4,2.6l0.8,1.4c0.1,0.2,0.1,0.6,0.2,0.8c0.1,0.2,0.4,0.3,0.4,0.6c0.2,0.3,0.1,0.6,0.2,1
		c0.3,1.5,1.5,3.6,1.8,5.2c0.1,0.5,0,1,0.1,1.5c0.1,1.3,0.2,3.6-0.2,5.2c-0.2,0.6-0.6,1.5-1,2.3c-0.3,0.7-0.6,1.5-0.8,2.2
		c-0.2,0.7-0.7,1.4-1.1,2c-0.4,0.8-0.6,1.6-1,2.1c-0.9,1.1-2.5,2.4-4,3.4c-2.5,1.7-4.6,2.5-8.2,3c-2.2,0.3-4.2,0.4-6.2,0
		c-1.4-0.2-2.5-0.9-3.8-1.3c-1.3-0.4-2.8-0.5-3.8-1c-0.6-0.2-1.4-1-2.1-1.5c-1.9-1.5-3-3.3-4.2-5.7c-0.2-0.2-0.2-0.4-0.4-0.6
		c-0.5-1-0.7-2.9-1-4.6c-0.6-3.3-0.6-6.9,0-10.2c0.4-1.8,0.8-2.9,1.4-4.5l1.1-2.5c0.2-0.4,0.7-0.8,1.1-1.4c1-1.3,1.5-1.8,2.9-2.9
		c1.4-1,2.6-2,4.4-2.9c2.1-1,3.8-1.8,6.5-2.2C1134.8,572.9,1137.5,573.7,1139.9,574.5z M1126.2,584.8c-1.8,1.8-2.2,4.4-2.4,7.4
		c-0.5,4.3,0.2,8.1,1.8,10.7c0.6,1,1.9,2.5,2.6,3c1.8,1.2,6,1.7,8.5,1c0.8-0.2,1.8-1,2.4-1.4c2.5-2.2,4.2-5.8,4.2-10.4
		c0-4-1.8-6.9-3.1-9.2c-0.4-0.6-0.7-1.4-1.1-1.8c-0.7-0.8-2.9-2.3-4.2-2.4c-1.2-0.1-2.5,0.1-3.5,0.5
		C1129.5,582.8,1127.3,583.6,1126.2,584.8z"/>
	<path d="M721.2,690.4c-0.6-0.4-0.9-1.6-0.6-2.4c0.2-0.8,1.2-1.2,1.6-1.6c0-0.7-0.8-0.6-1.4-0.9c-0.4-0.2-0.6-0.7-1-0.9
		c-0.3-0.2-0.7-0.3-1.1-0.5c-0.9-0.4-2.3-0.7-3.4-0.2c-1,0.4-2.4,1.9-2.8,3c-0.1,0.2-0.1,0.4-0.2,0.6c-0.1,0.2-0.3,0.4-0.3,0.6
		c0,0.2,0,0.6,0,1c-0.2,0.8-0.4,1.7-0.2,2.6c0.2,0.3,0.7,0.1,1,0.2c1.8,0.2,4.2,0.3,6,0.5c0.4,0.6,0.2,1.5-0.3,1.9
		c-0.7,0.2-1.1-0.2-1.7-0.3c-1.1-0.2-2.4-0.1-3.6-0.2c-0.5,0-1-0.2-1.5-0.2c-0.2,1.9-0.3,4-0.2,6.1c0,0.3,0.2,0.6,0.2,0.9
		c0,0.4-0.1,0.9-0.1,1.3c0,0.6,0.3,1.3,0.3,2c0.1,1.7-0.3,3.4,0.5,4.8c2-0.2,4.6,0.2,6.5,0.6c1.1-0.6,2,0.4,1.6,1.6
		c-1.1,0.8-2.4-0.1-3.7-0.2c-1.2-0.1-2.4-0.2-3.6-0.1c-0.5,0-1,0.2-1.5,0.2c-0.7,0.1-1.4-0.1-2.1,0c-0.2,0-0.4,0.2-0.6,0.2
		c-0.2,0-0.5,0-0.7,0c-1,0.1-1.9,0.6-2.8,0.6c-0.6-0.3-0.9-1.6-0.2-2.1c1,0.2,1.9-0.3,2.8-0.4c0.7-0.1,1.4,0.2,2-0.2
		c0.4-1.8,0.1-4.2,0-6.3c-0.1-2.4,0-5.8,0-8.8c-0.5-0.3-1.2,0-1.8,0c-0.6,0-1-0.2-1.6-0.1c-0.6,0-1.3,0.4-1.7-0.1
		c-0.3-0.4,0-1.2,0.1-1.7c1.5-0.3,3.4,0.4,5.2,0c0.1-1.4,0.1-2.3,0.3-3.5c0.1-0.8,0.2-1.4,0.5-2c1.3-2.4,3-4.8,7.1-4
		c0.3,0,0.7,0.2,1,0.3c0.3,0.1,0.5,0.4,0.8,0.5c0.6,0.4,1.4,0.6,1.9,0.8c0.2,0.2,0.6,0.5,1,0.8c0.6,0.5,1.4,1.3,1.6,2.3
		c0,0.3,0,0.6-0.1,0.9c0,0.8,0.1,1.5-0.4,2.1C723.1,690.3,722.2,691.1,721.2,690.4z"/>
	<path d="M739.4,701.3c-0.6,0-1.1-0.1-1.6-0.2c-1.6,0-3.5,0-5.1-0.1c-2.1-0.2-4.2-0.4-6.2,0.1c-0.3,0.8,0,1.4,0.2,2
		c0.2,0.6,0.3,1.2,0.5,1.9c0.1,0.3,0.3,0.4,0.5,0.8c0.4,0.5,0.7,0.8,1.2,1.3c0.9,0.9,2.4,2.4,4.3,2.3c0.2,0,0.4-0.1,0.6-0.1
		c0.2,0,0.6,0,0.8-0.1c0.3-0.1,0.6-0.3,1-0.4c0.8-0.3,1.2-0.4,1.8-0.8c0.1-0.1,0.2-0.2,0.3-0.3c1.1-0.7,1.8-1.2,2.7-2.4
		c0.4-0.6,0.8-1.1,1.1-1.2c0.9,0,0.9,0.8,0.7,1.4c-0.2,0.6-0.7,1.1-0.8,1.4c-0.8,0.5-1.5,1.1-2.2,1.8c-0.2,0.2-0.4,0.4-0.6,0.7
		c-0.8,0.1-1.3,0.8-2.1,1.1c-0.3,0.1-0.8,0.2-1.4,0.3c-0.8,0.2-1.8,0.6-3.1,0.4c-0.4-0.1-1.6-0.7-2-1c-0.2-0.1-0.4-0.3-0.6-0.4
		c-0.5-0.4-1.2-0.9-1.6-1.4c-0.7-0.7-1.6-1.6-1.9-2.2c-0.2-0.4-0.3-1.1-0.4-1.6c-0.8-2.5-1-6.5,0-9.1c0.2-0.4,0.5-0.8,0.7-1.2
		c0.2-0.5,0.2-1,0.5-1.4c0.4-0.7,1.3-1.3,1.7-2c0.8-0.2,1.2-0.8,1.8-1.1c1.1-0.5,3.1-0.6,4.4-0.3c1.4,0.4,2.1,0.8,3.2,1.7l0.9,0.8
		c0.8,0.6,1.2,1,1.8,2c0.5,0.9,0.7,1.6,1.1,2.6c0.2,0.4,0.4,0.7,0.4,1c0.1,0.4,0.1,0.8,0.2,1.3c0.2,1.2,0.6,1.8,0,2.6
		C741.3,701,740.3,701.3,739.4,701.3z M740.3,696.4c-0.1-0.3-0.4-0.7-0.6-1.2c-0.5-0.8-0.9-1.4-1.5-2.1c-0.3-0.3-0.6-0.7-0.9-0.9
		c-0.2-0.2-0.6-0.2-0.8-0.4c-0.3-0.2-0.5-0.4-0.8-0.5c-0.8-0.4-2.3-0.7-3.2-0.6c-1.3,0.2-3,1.1-3.7,2c-0.2,0.2-0.4,0.6-0.6,1
		c-0.6,1-0.9,1.8-1.4,3c-0.2,0.7-0.6,1.5-0.4,2.2c1.1,0.4,2.2,0,3.4,0c0.5,0,1,0.2,1.5,0.2c2.6,0.2,4.8,0.2,7.2,0.2
		c0.7,0,1.6,0.2,2.1-0.4c0.1-0.5-0.2-0.9-0.3-1.4C740.3,697.2,740.4,696.8,740.3,696.4z"/>
	<path d="M761.1,701.3c-0.6,0-1.1-0.1-1.6-0.2c-1.6,0-3.5,0-5.1-0.1c-2.1-0.2-4.2-0.4-6.2,0.1c-0.3,0.8,0,1.4,0.2,2
		c0.2,0.6,0.3,1.2,0.5,1.9c0.1,0.3,0.3,0.4,0.5,0.8c0.4,0.5,0.7,0.8,1.2,1.3c0.9,0.9,2.4,2.4,4.3,2.3c0.2,0,0.4-0.1,0.6-0.1
		c0.2,0,0.6,0,0.8-0.1c0.3-0.1,0.6-0.3,1-0.4c0.8-0.3,1.2-0.4,1.8-0.8c0.1-0.1,0.2-0.2,0.3-0.3c1.1-0.7,1.8-1.2,2.7-2.4
		c0.4-0.6,0.8-1.1,1.1-1.2c0.9,0,0.9,0.8,0.7,1.4c-0.2,0.6-0.7,1.1-0.8,1.4c-0.8,0.5-1.5,1.1-2.2,1.8c-0.2,0.2-0.4,0.4-0.6,0.7
		c-0.8,0.1-1.3,0.8-2.1,1.1c-0.3,0.1-0.8,0.2-1.4,0.3c-0.8,0.2-1.8,0.6-3.1,0.4c-0.4-0.1-1.6-0.7-2-1c-0.2-0.1-0.4-0.3-0.6-0.4
		c-0.5-0.4-1.2-0.9-1.6-1.4c-0.7-0.7-1.6-1.6-1.9-2.2c-0.2-0.4-0.3-1.1-0.4-1.6c-0.8-2.5-1-6.5,0-9.1c0.2-0.4,0.5-0.8,0.7-1.2
		c0.2-0.5,0.2-1,0.5-1.4c0.4-0.7,1.3-1.3,1.7-2c0.8-0.2,1.2-0.8,1.8-1.1c1.1-0.5,3.1-0.6,4.4-0.3c1.4,0.4,2.1,0.8,3.2,1.7l0.9,0.8
		c0.8,0.6,1.2,1,1.8,2c0.5,0.9,0.7,1.6,1.1,2.6c0.2,0.4,0.4,0.7,0.4,1c0.1,0.4,0.1,0.8,0.2,1.3c0.2,1.2,0.6,1.8,0,2.6
		C763.1,701,762.1,701.3,761.1,701.3z M762,696.4c-0.1-0.3-0.4-0.7-0.6-1.2c-0.5-0.8-0.9-1.4-1.5-2.1c-0.3-0.3-0.6-0.7-0.9-0.9
		c-0.2-0.2-0.6-0.2-0.8-0.4c-0.3-0.2-0.5-0.4-0.8-0.5c-0.8-0.4-2.3-0.7-3.2-0.6c-1.3,0.2-3,1.1-3.7,2c-0.2,0.2-0.4,0.6-0.6,1
		c-0.6,1-0.9,1.8-1.4,3c-0.2,0.7-0.6,1.5-0.4,2.2c1.1,0.4,2.2,0,3.4,0c0.5,0,1,0.2,1.5,0.2c2.6,0.2,4.8,0.2,7.2,0.2
		c0.7,0,1.6,0.2,2.1-0.4c0.1-0.5-0.2-0.9-0.3-1.4C762.1,697.2,762.1,696.8,762,696.4z"/>
	<path d="M777.5,686.1c-0.1,1.1,0,2.3-0.1,3.4c-0.1,0.8-0.2,1.6-0.2,2.5c0,0.8,0,1.7,0,2.5c0,0.4-0.1,0.9-0.2,1.3
		c0,0.7,0.2,1.4,0.2,2.1c0,0.4-0.1,0.8-0.1,1.2c0,0.6,0.2,1.1,0.2,1.7c0.1,1.3-0.1,2.6-0.1,4c0,1.2,0.2,2.4,0.4,3.6
		c0.7,0.2,1.5,0.2,2.3,0.2c1.2,0.1,2.4,0.5,3.4,0.6c1.2,0.2,2.8-0.2,2.5,1.1c-0.2,1.2-2.2,0.5-3.2,0.3c-0.9-0.1-1.9-0.3-2.8-0.4
		c-1.8-0.3-4.4,0.1-6.5,0.1c-0.8,0-1.7-0.2-2.5-0.2c-1,0-2,0.4-2.7-0.2c-0.4-1.8,1.8-1.6,3.5-1.5c1.1,0,3.2,0.2,4.5-0.1
		c0-2.9-0.1-5.9-0.1-8.9c0-3-0.3-6-0.2-8.9c0.1-1.8,0.5-3.7,0.2-5.5c-0.9,0-2.1,0.3-3.2,0.4c-1.4,0.1-2.9,0.1-4.3,0.2
		c-0.7,0-1.7,0.3-1.8-0.5c-0.1-0.6,0.4-0.9,1.1-1c0.6-0.1,1.4-0.2,2-0.2c2,0,5.2-0.1,6.5-0.6c0.4-0.2,1.2,0.1,1.4,0.5
		C777.9,684.7,777.6,685.3,777.5,686.1z"/>
	<path d="M818.9,690.4c-0.6-0.4-0.9-1.6-0.6-2.4c0.2-0.8,1.2-1.2,1.6-1.6c0-0.7-0.8-0.6-1.4-0.9c-0.4-0.2-0.6-0.7-1-0.9
		c-0.3-0.2-0.7-0.3-1.1-0.5c-0.9-0.4-2.3-0.7-3.4-0.2c-1,0.4-2.4,1.9-2.8,3c-0.1,0.2-0.1,0.4-0.2,0.6c-0.1,0.2-0.3,0.4-0.3,0.6
		c0,0.2,0,0.6,0,1c-0.2,0.8-0.4,1.7-0.2,2.6c0.2,0.3,0.7,0.1,1,0.2c1.8,0.2,4.2,0.3,6,0.5c0.4,0.6,0.2,1.5-0.3,1.9
		c-0.7,0.2-1.1-0.2-1.7-0.3c-1.1-0.2-2.4-0.1-3.6-0.2c-0.5,0-1-0.2-1.5-0.2c-0.2,1.9-0.3,4-0.2,6.1c0,0.3,0.2,0.6,0.2,0.9
		c0,0.4-0.1,0.9-0.1,1.3c0,0.6,0.3,1.3,0.3,2c0.1,1.7-0.3,3.4,0.5,4.8c2-0.2,4.6,0.2,6.5,0.6c1.1-0.6,2,0.4,1.6,1.6
		c-1.1,0.8-2.4-0.1-3.7-0.2c-1.2-0.1-2.4-0.2-3.6-0.1c-0.5,0-1,0.2-1.5,0.2c-0.7,0.1-1.4-0.1-2.1,0c-0.2,0-0.4,0.2-0.6,0.2
		c-0.2,0-0.5,0-0.7,0c-1,0.1-1.9,0.6-2.8,0.6c-0.6-0.3-0.9-1.6-0.2-2.1c1,0.2,1.9-0.3,2.8-0.4c0.7-0.1,1.4,0.2,2-0.2
		c0.4-1.8,0.1-4.2,0-6.3c-0.1-2.4,0-5.8,0-8.8c-0.5-0.3-1.2,0-1.8,0c-0.6,0-1-0.2-1.6-0.1c-0.6,0-1.3,0.4-1.7-0.1
		c-0.3-0.4,0-1.2,0.1-1.7c1.5-0.3,3.4,0.4,5.2,0c0.1-1.4,0.1-2.3,0.3-3.5c0.1-0.8,0.2-1.4,0.5-2c1.3-2.4,3-4.8,7.1-4
		c0.3,0,0.7,0.2,1,0.3c0.3,0.1,0.5,0.4,0.8,0.5c0.6,0.4,1.4,0.6,1.9,0.8c0.2,0.2,0.6,0.5,1,0.8c0.6,0.5,1.4,1.3,1.6,2.3
		c0,0.3,0,0.6-0.1,0.9c0,0.8,0.1,1.5-0.4,2.1C820.8,690.3,819.9,691.1,818.9,690.4z"/>
	<path d="M835.7,692.7c1.1-0.5,1.9-1.2,3.5-1.4c0.4,0,1-0.1,1.4-0.1c0.2,0,0.6,0.2,0.9,0.4c1.1,0.4,1.6,0.8,2.3,1.7
		c0.2,0.3,0.4,0.5,0.5,0.7c0.1,0.4,0.2,1,0.3,1.5c0.1,0.4,0.4,1,0.2,1.4c-0.1,0.4-0.8,0.8-1.3,0.6c-0.6-0.2-0.4-1.4-0.7-2.4
		c-0.3-1-1.2-1.5-2.2-1.8c-0.4-0.1-0.7-0.2-1.2-0.1c-0.9,0-1,0.5-2.1,0.6c-0.9,0.6-1.6,1.2-2.4,2c-0.4,0.5-1.2,1-1.3,1.6
		c-0.2,0.7-0.1,1.7-0.1,2.6c0,1-0.1,2-0.1,2.9c0,2.2-0.1,4.4,0.2,6.1c1.8,0,3.8,0.4,5.5,0.4c0.8,0,1.5-0.3,2,0.2
		c0.2,0.3,0.4,1.2,0.1,1.6c-0.6,0.6-1.3,0.1-2-0.1c-1.1-0.2-2.5-0.1-4-0.2c-1.5-0.1-3.2-0.3-4.5-0.2c-0.8,0.1-1.7,0.4-2.8,0.4
		c-0.2,0-0.6-0.1-0.8-0.1c-0.6-0.1-1.4,0.2-1.7-0.3c0,0,0-0.1-0.1-0.1c-0.1-0.5,0.1-1.1,0.5-1.3c0.4-0.2,1,0.1,1.6,0.2
		c1.5,0.1,3.2,0,4.3-0.3c0.4-1.7,0.2-3.6,0.2-5.5c0-2.6,0.4-5.4,0.5-7.9c0-1.1,0.1-2.2-0.4-3.1c-1.3-0.1-2.4,0.2-3.9,0.3
		c-0.3,0-0.7,0.2-1,0.2c-0.7,0-1.5-0.1-2.2,0.2c-0.3-0.2-0.9-1-0.5-1.7c0.4-0.6,1.8-0.3,3.2-0.4c0.8-0.1,1.8-0.3,2.4-0.4
		c0.4,0,1,0.1,1.4,0c0.7-0.1,2.1-0.2,2.4,0.3c0.3,0.5,0,0.8-0.1,1.4c0,0.5,0,1,0,1.8C834.6,693.8,835.3,693.4,835.7,692.7z"/>
	<path d="M862.8,701.3c-0.6,0-1.1-0.1-1.6-0.2c-1.6,0-3.5,0-5.1-0.1c-2.1-0.2-4.2-0.4-6.2,0.1c-0.3,0.8,0,1.4,0.2,2
		c0.2,0.6,0.3,1.2,0.5,1.9c0.1,0.3,0.3,0.4,0.5,0.8c0.4,0.5,0.7,0.8,1.2,1.3c0.9,0.9,2.4,2.4,4.3,2.3c0.2,0,0.4-0.1,0.6-0.1
		c0.2,0,0.6,0,0.8-0.1c0.3-0.1,0.6-0.3,1-0.4c0.8-0.3,1.2-0.4,1.8-0.8c0.1-0.1,0.2-0.2,0.3-0.3c1.1-0.7,1.8-1.2,2.7-2.4
		c0.4-0.6,0.8-1.1,1.1-1.2c0.9,0,0.9,0.8,0.7,1.4c-0.2,0.6-0.7,1.1-0.8,1.4c-0.8,0.5-1.5,1.1-2.2,1.8c-0.2,0.2-0.4,0.4-0.6,0.7
		c-0.8,0.1-1.3,0.8-2.1,1.1c-0.3,0.1-0.8,0.2-1.4,0.3c-0.8,0.2-1.8,0.6-3.1,0.4c-0.4-0.1-1.6-0.7-2-1c-0.2-0.1-0.4-0.3-0.6-0.4
		c-0.5-0.4-1.2-0.9-1.6-1.4c-0.7-0.7-1.6-1.6-1.9-2.2c-0.2-0.4-0.3-1.1-0.4-1.6c-0.8-2.5-1-6.5,0-9.1c0.2-0.4,0.5-0.8,0.7-1.2
		c0.2-0.5,0.2-1,0.5-1.4c0.4-0.7,1.3-1.3,1.7-2c0.8-0.2,1.2-0.8,1.8-1.1c1.1-0.5,3.1-0.6,4.4-0.3c1.4,0.4,2.1,0.8,3.2,1.7l0.9,0.8
		c0.8,0.6,1.2,1,1.8,2c0.5,0.9,0.7,1.6,1.1,2.6c0.2,0.4,0.4,0.7,0.4,1c0.1,0.4,0.1,0.8,0.2,1.3c0.2,1.2,0.6,1.8,0,2.6
		C864.8,701,863.8,701.3,862.8,701.3z M863.7,696.4c-0.1-0.3-0.4-0.7-0.6-1.2c-0.5-0.8-0.9-1.4-1.5-2.1c-0.3-0.3-0.6-0.7-0.9-0.9
		c-0.2-0.2-0.6-0.2-0.8-0.4c-0.3-0.2-0.5-0.4-0.8-0.5c-0.8-0.4-2.3-0.7-3.2-0.6c-1.3,0.2-3,1.1-3.7,2c-0.2,0.2-0.4,0.6-0.6,1
		c-0.6,1-0.9,1.8-1.4,3c-0.2,0.7-0.6,1.5-0.4,2.2c1.1,0.4,2.2,0,3.4,0c0.5,0,1,0.2,1.5,0.2c2.6,0.2,4.8,0.2,7.2,0.2
		c0.7,0,1.6,0.2,2.1-0.4c0.1-0.5-0.2-0.9-0.3-1.4C863.8,697.2,863.8,696.8,863.7,696.4z"/>
	<path d="M884.6,701.3c-0.6,0-1.1-0.1-1.6-0.2c-1.6,0-3.5,0-5.1-0.1c-2.1-0.2-4.2-0.4-6.2,0.1c-0.3,0.8,0,1.4,0.2,2
		c0.2,0.6,0.3,1.2,0.5,1.9c0.1,0.3,0.3,0.4,0.5,0.8c0.4,0.5,0.7,0.8,1.2,1.3c0.9,0.9,2.4,2.4,4.3,2.3c0.2,0,0.4-0.1,0.6-0.1
		c0.2,0,0.6,0,0.8-0.1c0.3-0.1,0.6-0.3,1-0.4c0.8-0.3,1.2-0.4,1.8-0.8c0.1-0.1,0.2-0.2,0.3-0.3c1.1-0.7,1.8-1.2,2.7-2.4
		c0.4-0.6,0.8-1.1,1.1-1.2c0.9,0,0.9,0.8,0.7,1.4c-0.2,0.6-0.7,1.1-0.8,1.4c-0.8,0.5-1.5,1.1-2.2,1.8c-0.2,0.2-0.4,0.4-0.6,0.7
		c-0.8,0.1-1.3,0.8-2.1,1.1c-0.3,0.1-0.8,0.2-1.4,0.3c-0.8,0.2-1.8,0.6-3.1,0.4c-0.4-0.1-1.6-0.7-2-1c-0.2-0.1-0.4-0.3-0.6-0.4
		c-0.5-0.4-1.2-0.9-1.6-1.4c-0.7-0.7-1.6-1.6-1.9-2.2c-0.2-0.4-0.3-1.1-0.4-1.6c-0.8-2.5-1-6.5,0-9.1c0.2-0.4,0.5-0.8,0.7-1.2
		c0.2-0.5,0.2-1,0.5-1.4c0.4-0.7,1.3-1.3,1.7-2c0.8-0.2,1.2-0.8,1.8-1.1c1.1-0.5,3.1-0.6,4.4-0.3c1.4,0.4,2.1,0.8,3.2,1.7l0.9,0.8
		c0.8,0.6,1.2,1,1.8,2c0.5,0.9,0.7,1.6,1.1,2.6c0.2,0.4,0.4,0.7,0.4,1c0.1,0.4,0.1,0.8,0.2,1.3c0.2,1.2,0.6,1.8,0,2.6
		C886.6,701,885.6,701.3,884.6,701.3z M885.5,696.4c-0.1-0.3-0.4-0.7-0.6-1.2c-0.5-0.8-0.9-1.4-1.5-2.1c-0.3-0.3-0.6-0.7-0.9-0.9
		c-0.2-0.2-0.6-0.2-0.8-0.4c-0.3-0.2-0.5-0.4-0.8-0.5c-0.8-0.4-2.3-0.7-3.2-0.6c-1.3,0.2-3,1.1-3.7,2c-0.2,0.2-0.4,0.6-0.6,1
		c-0.6,1-0.9,1.8-1.4,3c-0.2,0.7-0.6,1.5-0.4,2.2c1.1,0.4,2.2,0,3.4,0c0.5,0,1,0.2,1.5,0.2c2.6,0.2,4.8,0.2,7.2,0.2
		c0.7,0,1.6,0.2,2.1-0.4c0.1-0.5-0.2-0.9-0.3-1.4C885.5,697.2,885.6,696.8,885.5,696.4z"/>
	<path d="M918.7,692.3c0.6,0,1.2,0,1.5,0.1c0.6,0.2,0.9,1.5,0.1,2c-1.1-0.1-2.2-0.5-3.2-0.5c-1.6-0.1-3.2,0-5,0
		c-0.3,0.7-0.2,1.6-0.2,2.4c0,1.2,0.1,2.4,0.1,3.6c0,0.7-0.2,1.4-0.2,2c0,0.2,0.2,0.5,0.2,0.8c0,0.2,0,0.6,0.1,0.8
		c0,0.3,0.3,0.5,0.4,0.8c0.1,0.3,0,0.6,0.1,0.8c0.3,1.2,1.3,3.1,2.4,3.7c0.7,0.4,1.8,0.4,2.8,0c0.4-0.2,1.4-1,1.7-1.6
		c0.2-0.4,0.2-1.1,0.3-1.9c0-0.6,0.2-1.2,0.2-1.7c0-0.3-0.2-0.6-0.2-1c0-0.6,0.4-1.3,0.7-1.4c0.5,0,0.6,0.4,0.9,0.7
		c0.1,1.1-0.3,2.3-0.4,3.4c0,0.4,0,0.8,0,1.1c0,0.4-0.2,0.6-0.3,1c-0.2,0.6-0.1,1-0.4,1.4c-0.3,0.4-0.9,0.8-1.4,1.1
		c-1.1,0.6-1.8,0.8-3.7,0.6c-0.6,0-1.2-0.1-1.6-0.4c-0.4-0.3-0.5-0.8-0.8-1.4c-0.3-0.4-0.7-0.9-0.9-1.3c-0.1-0.3-0.2-0.6-0.3-0.9
		c-0.7-1.6-1.4-4.6-1.2-7.1c0.2-1.5,0.3-3.6,0.2-5.2c-1.1-0.2-2.2-0.2-3.5-0.1c-0.9,0.2-2,0.6-1.9-0.6c0-0.2,0.2-0.2,0.2-0.4
		c0.1-0.4,0-0.7,0.4-0.8c0.4-0.2,0.8,0.1,1.2,0.1c1.3,0,2.8-0.1,3.7-0.2c0.3-0.6,0.2-1.4,0.2-2.2c0.1-1,0.4-2,0.3-3
		c0-0.8-0.4-1.6-0.3-2.3c0.1-0.6,1-1.5,1.9-0.9c0.4,0.3,0.4,1,0.4,1.6c-0.1,0.5-0.6,1-0.7,1.6c-0.2,0.7,0,1.5,0,2.3
		c0,1-0.4,2-0.3,2.9C913.6,692.1,916.6,692.2,918.7,692.3z"/>
	<path d="M934.6,690.5c0.6,0.1,1.4,0.6,2,0.9c0.7,0.4,1.4,0.7,2,1c0.5,0.3,1,0.9,1.6,1.6c1.2,1.3,2.2,2.6,2.6,4.8
		c0.3,1.4,0.4,2.6,0.1,3.9c-0.2,1.1-0.5,1.8-1,2.7c-0.1,0.2-0.3,0.4-0.4,0.7c-0.4,0.6-0.6,1.2-1.2,1.8c-0.6,0.6-1.4,1.2-2.2,1.7
		c-0.4,0.3-0.8,0.6-1.1,0.8c-0.3,0.2-0.8,0.2-1.1,0.3c-0.4,0.1-0.7,0.4-1,0.4c-0.4,0.1-1-0.1-1.6-0.1c-0.4,0-0.8,0.2-1.1,0.2
		c-0.4,0-0.9-0.2-1.4-0.3c-0.8-0.2-1.3-0.4-1.9-0.6c-0.2-0.1-0.5,0-0.6-0.1c-0.2-0.1-0.3-0.3-0.5-0.4c-0.6-0.4-1-0.7-1.5-1.4
		c-0.3-0.4-0.7-0.8-0.9-1.2c-0.5-1-1-3-1.1-4.4c0-0.6,0-1.2,0-1.9c-0.1-1.1-0.1-2.1,0.3-3.1c0.2-0.5,0.6-1,0.9-1.5
		c0.8-1.2,1.2-1.6,2.2-2.5c0.8-0.7,1.5-1.4,2.3-2.2c0.9-0.8,1-1.2,2.6-1.2C933,690.4,934,690.3,934.6,690.5z M935.6,692.6
		c-0.4-0.2-0.8-0.5-1.2-0.6c-0.7-0.2-1.2,0.2-1.9,0c-1.7,1-3,2.3-4.6,3.4c-0.3,0.7-0.9,1.2-1.4,1.7c-0.2,1.1-0.8,1.5-1,2.4
		c-0.1,1.2,0.2,2.8,0.4,3.8c0.1,0.5,0.2,1,0.2,1.4c0.1,0.6,0.3,0.8,0.6,1.3c0.2,0.3,0.3,0.6,0.4,0.8c0.7,1,2.1,1.7,3.4,2
		c0.7,0.2,1.6,0.3,2.2,0.3c2.8,0.1,4.7-1.4,6-2.8c0.4-0.4,0.8-0.7,1-1c0.4-0.6,1.4-2.6,1.5-3.4c0-0.2-0.1-0.6-0.1-0.9
		c0-0.4,0.2-0.8,0.2-1.1c0-0.5-0.4-0.8-0.5-1.4c-0.2-0.6-0.1-1.2-0.3-1.6c-0.3-0.8-1.3-1.2-1.4-2.1c-0.7-0.4-1.5-1.3-2.4-1.9
		C936.5,692.9,936,692.8,935.6,692.6z"/>
	<path d="M976,696.5c-0.2-0.4-0.6-0.8-1-1.3c-0.4-0.4-0.7-0.9-1.1-1.2c-0.2-0.2-0.7-0.3-1-0.5c-0.6-0.3-1-0.6-1.9-0.6
		c-1.4-0.1-2.8,0.2-4,0.4c-0.9,0.5-1.8,1.3-2.3,2.5c-0.1,0.2,0,0.4-0.2,0.7c-0.2,0.5-0.5,1.2-0.6,1.8c-0.4,2.1-0.3,4.6,0.2,6.3
		c0.5,1.6,2,3,3.6,3.6c1.5,0.6,3.7,0.2,5.2-0.6c0.3-0.2,0.6-0.5,1-0.8c0.7-0.6,1.1-0.8,1.8-1.6c0.2-0.3,0.5-0.9,0.8-1
		c0.6-0.1,1.3,0.8,1.2,1.4c-0.1,0.7-1.3,0.9-1.6,1.3c-0.6,0.8-1.5,1.4-2.3,2.1c-0.9,0.7-1.6,1.1-3.1,1.3c-1.6,0.2-3.1,0-4.3-0.7
		c-0.3-0.2-0.6-0.5-1-0.8c-0.8-0.6-1-0.8-1.6-1.6c-0.8-1.2-1.6-2.9-1.7-4.9c0-0.4,0.2-0.8,0.2-1.1c0-0.8-0.2-1.7-0.1-2.5
		c0.1-0.4,0.2-1,0.4-1.5c0.2-0.9,0.4-1.8,0.8-2.6c0.4-0.6,1.3-1.9,1.9-2.3c0.8-0.6,2-1,3-1.1c0.7-0.1,1.6,0,2.3,0
		c0.9,0.1,2.3,0.3,3.2,0.7c0.5,0.2,0.9,0.8,1.4,1.1c1.1,0.7,1.7,1.1,2.3,2.3c0.5,0.9,0.8,1.6,0.5,2.6
		C976.5,698.7,976.4,697.3,976,696.5z"/>
	<path d="M987.5,686.1c-0.1,1.1,0,2.3-0.1,3.4c-0.1,0.8-0.2,1.6-0.2,2.5c0,0.8,0,1.7,0,2.5c0,0.4-0.1,0.9-0.2,1.3
		c0,0.7,0.2,1.4,0.2,2.1c0,0.4-0.1,0.8-0.1,1.2c0,0.6,0.2,1.1,0.2,1.7c0.1,1.3-0.1,2.6-0.1,4c0,1.2,0.2,2.4,0.4,3.6
		c0.7,0.2,1.5,0.2,2.3,0.2c1.2,0.1,2.4,0.5,3.4,0.6c1.2,0.2,2.8-0.2,2.5,1.1c-0.2,1.2-2.2,0.5-3.2,0.3c-0.9-0.1-1.9-0.3-2.8-0.4
		c-1.8-0.3-4.4,0.1-6.5,0.1c-0.8,0-1.7-0.2-2.5-0.2c-1,0-2,0.4-2.7-0.2c-0.4-1.8,1.8-1.6,3.5-1.5c1.1,0,3.2,0.2,4.5-0.1
		c0-2.9-0.1-5.9-0.1-8.9c0-3-0.3-6-0.2-8.9c0.1-1.8,0.5-3.7,0.2-5.5c-0.9,0-2.1,0.3-3.2,0.4c-1.4,0.1-2.9,0.1-4.3,0.2
		c-0.7,0-1.7,0.3-1.8-0.5c-0.1-0.6,0.4-0.9,1.1-1c0.6-0.1,1.4-0.2,2-0.2c2,0,5.2-0.1,6.5-0.6c0.4-0.2,1.2,0.1,1.4,0.5
		C987.9,684.7,987.5,685.3,987.5,686.1z"/>
	<path d="M1007.5,695.3c0,0.4,0,0.8-0.1,1.1l-0.2,1c0,0.4,0.1,0.8,0.1,1.2c0,1-0.2,2.4-0.3,3.7c-0.1,2.1,0.1,4.2,0,6.3
		c0.6,0.3,1.3,0.2,2,0.3c1.3,0.2,2.6,0.8,3.8,0.8c0.7,0,2-0.4,2.1,0.7c0.1,1.3-2.3,1.1-3.8,0.9c-0.6-0.1-1.3-0.5-1.9-0.6
		c-0.8-0.2-1.6,0-2.5-0.2c-0.8-0.1-1.6-0.3-2.3-0.3c-0.7,0-1.6,0.2-2.5,0.3c-0.4,0.1-0.7,0.2-1,0.2c-0.6,0.1-1.3-0.1-1.8,0
		c-0.6,0.1-1.2,0.5-1.7,0.2c-0.2-0.3-0.4-1-0.3-1.4c0.3-0.7,1.1-0.4,1.7-0.4c0.6,0,1.3-0.2,2-0.3c0.5,0,1,0.1,1.4,0.1
		c1.1,0,2.1-0.6,3.1-0.4c0.2-1,0.4-2.1,0.5-3.4c0.2-2.8,0-6.6,0.3-9c0.1-0.5,0.4-1.2,0.2-1.7c-0.2-0.7-1-0.6-1.9-0.8
		c-1.5-0.2-3.6-0.4-5.1-0.2c-0.5-0.1-1.3-0.7-0.7-1.4c0.1-0.2,2-0.5,2.5-0.5c0.2,0,0.5,0.1,0.8,0.2c1.9,0.2,4.6-0.1,6.4,0.4
		C1008.6,693.1,1007.8,694,1007.5,695.3z M1007.2,684.5c0.7,0.1,1.6,1.1,1.6,2.1c0,0.8-0.7,1.3-1.2,1.8
		C1004.1,689.3,1004.9,684.2,1007.2,684.5z"/>
	<path d="M1031.4,696.5c-0.2-0.4-0.6-0.8-1-1.3c-0.4-0.4-0.7-0.9-1.1-1.2c-0.2-0.2-0.7-0.3-1-0.5c-0.6-0.3-1-0.6-1.9-0.6
		c-1.4-0.1-2.8,0.2-4,0.4c-0.9,0.5-1.8,1.3-2.3,2.5c-0.1,0.2,0,0.4-0.2,0.7c-0.2,0.5-0.5,1.2-0.6,1.8c-0.4,2.1-0.3,4.6,0.2,6.3
		c0.5,1.6,2,3,3.6,3.6c1.5,0.6,3.7,0.2,5.2-0.6c0.3-0.2,0.6-0.5,1-0.8c0.7-0.6,1.1-0.8,1.8-1.6c0.2-0.3,0.5-0.9,0.8-1
		c0.6-0.1,1.3,0.8,1.2,1.4c-0.1,0.7-1.3,0.9-1.6,1.3c-0.6,0.8-1.5,1.4-2.3,2.1c-0.9,0.7-1.6,1.1-3.1,1.3c-1.6,0.2-3.1,0-4.3-0.7
		c-0.3-0.2-0.6-0.5-1-0.8c-0.8-0.6-1-0.8-1.6-1.6c-0.8-1.2-1.6-2.9-1.7-4.9c0-0.4,0.2-0.8,0.2-1.1c0-0.8-0.2-1.7-0.1-2.5
		c0.1-0.4,0.2-1,0.4-1.5c0.2-0.9,0.4-1.8,0.8-2.6c0.4-0.6,1.3-1.9,1.9-2.3c0.8-0.6,2-1,3-1.1c0.7-0.1,1.6,0,2.3,0
		c0.9,0.1,2.3,0.3,3.2,0.7c0.5,0.2,0.9,0.8,1.4,1.1c1.1,0.7,1.7,1.1,2.3,2.3c0.5,0.9,0.8,1.6,0.5,2.6
		C1032,698.7,1031.8,697.3,1031.4,696.5z"/>
	<path d="M1041.5,686.2c-0.2,0.6-0.1,1.4-0.2,2.2c-0.1,0.7-0.4,1.4-0.4,2c-0.1,0.9,0,1.9-0.1,2.9c-0.1,0.7-0.3,2-0.3,2.8
		c0,0.3,0.1,0.6,0.1,0.8c0,1-0.4,2.7-0.2,4c0.4-0.2,1-0.6,1.4-1c0.9-0.8,1.8-1.6,2.7-2.6c1.3-1.4,3.1-2.5,4.3-4.1
		c-0.8-0.7-2.7,0.1-3.8-0.5c-0.4-1.4,0.8-1.5,2-1.4c1.6,0.1,3.2-0.2,4.7,0c1.9,0.1,3.5,0.4,4.7,0.9c0.3,0.6,0.1,1.4-0.4,1.6
		c-0.6,0.3-1.6-0.4-2.4-0.5c-1.2-0.2-2,0.2-2.8,0.6c-1.3,0.8-2.1,1.9-3.2,2.9c-0.6,0.5-1.2,1-1.6,1.6c0.4,1.1,1.2,1.8,1.9,2.6
		c0.7,0.8,1.4,1.6,2.1,2.5c0.4,1.2,1.2,2.1,1.8,3.1c0.6,1,1.3,1.9,2.1,2.8c1,0.3,2.4-0.6,3.1-0.1c0.5,0.3,0.5,1.2,0,1.7
		c-3-0.1-6,0.3-9,0.4c-0.4-0.4-0.9-0.9-0.7-1.7c1-0.6,3,0.2,4.2-0.3c-0.8-1.7-1.8-3.2-2.8-4.8c-0.4-0.6-0.6-1.2-1-1.6
		c-0.5-0.6-1-1-1.5-1.6c-0.4-0.6-0.9-1.2-1.6-1.4c-1.7,1.2-3.2,2.5-4.6,4c0,1.6-0.1,3-0.1,4.6c1.3,0.4,2.9,0.5,4.6,0.5
		c0.2,0.4,0.6,1.1,0.2,1.5c-1.1,0.4-2.2,0-3.3-0.1c-0.4,0-0.7,0-1.1,0c-0.4,0-0.7-0.2-1.1-0.2c-0.5,0-1,0.3-1.5,0.3
		c-0.8,0.1-1.6-0.1-2.3,0.1c-0.5-0.4-0.9-0.9-0.7-1.4c0.4-0.8,2.3-0.3,3.3-0.6c0.9-1.5,0.6-3.4,0.8-5.4c0.1-1.5,0.1-3.1,0.2-4.8
		c0-0.2,0.1-0.5,0.1-0.8c0-0.6-0.1-1.2,0-1.9c0-0.6,0.2-1.2,0.2-1.9l0.3-4.9c0.1-1.2,0.6-2.2,0.3-3.3c-1.2,0.2-2.5-0.4-3.8-0.4
		c-0.5,0-1,0.3-1.3,0.2c-0.6-0.3-0.8-1.8,0-2c0.3-0.1,1.4,0,2.2,0.1c1.7,0,3,0.2,4.6,0.3C1042.6,684.7,1041.7,685.4,1041.5,686.2z"
		/>
	<path d="M1088.1,709.1c-1-0.1-1.6,0.6-2.5,0.8c-0.4,0.1-0.7,0-1.1,0.1c-0.4,0.1-0.9,0.4-1.3,0.5c-0.2,0.1-0.5,0-0.8,0
		c-0.5,0.1-1.1,0.3-1.9,0.2c-0.3,0-0.6-0.2-0.8-0.2c-0.3,0-0.6,0-0.8-0.1c-0.5-0.2-1.5-1-1.9-1.5c-0.4-0.4-0.7-1.2-1.1-1.9
		c-0.3-0.6-0.8-1.3-0.9-2c0-1,0.8-2.8,1.3-3.4c0.2-0.2,0.6-0.4,1-0.8c0.8-0.7,1.9-1.7,2.9-2.2c0.3-0.2,0.8-0.2,1.1-0.4
		c0.8-0.3,1.4-0.5,2.5-0.6c2-0.2,4.3-0.1,6.7-0.1c0.4-1.3,0-2.6-0.8-3.6c-0.7-0.9-1.4-1.3-2.6-1.8c-1-0.4-2-0.9-3.1-1.1
		c-0.8-0.1-2.3,0.2-3.1,0.6c-0.7,0.4-1.3,1-1.6,1.6c0.1,0.5,0.5,0.8,0.6,1.3c0.2,1.2-0.6,2.5-1.6,2.6c-0.4,0-1.7-0.4-1.9-0.8
		c-0.2-0.2-0.4-1.2-0.3-1.7c0.1-0.4,0.7-1.2,1-1.6c0.6-0.8,1.2-1.4,2-2c1.4-1.1,3.2-2.2,5.8-1.5c0.4,0.1,0.7,0.2,1,0.4l1.9,0.8
		c0.7,0.3,1,0.5,1.7,0.8c0.8,0.4,1.4,0.6,1.8,1.4c0.4,0.6,0.7,1.8,0.8,2.6c0.2,0.7,0.1,2,0,2.9c-0.1,0.7-0.2,1.3-0.2,2.2
		c0,1.1-0.4,2.2-0.4,3.6c0,0.3,0.1,0.6,0.2,1c0.1,1.2-0.2,1.8,0.7,2.3c1.1,0.4,1.7-0.4,2.3-1.1c0.4-0.5,0.9-1.3,1.6-1.2
		c0.4,0.1,0.8,0.7,0.7,1.3c-0.1,0.6-1.1,1.1-1.7,1.6c-0.7,0.5-1.3,1.1-1.8,1.5c-1.7,0.2-2.4-0.6-3.2-1.4
		C1089.4,708.5,1088.5,708.6,1088.1,709.1z M1086,699.2c-0.9,0-2.2,0.2-2.8,0.4c-0.4,0.1-0.8,0.1-1,0.2c-0.4,0.2-0.9,0.6-1.4,0.9
		c-0.3,0.2-0.7,0.2-0.9,0.3c-0.2,0.1-0.4,0.4-0.6,0.5c-0.3,0.2-0.6,0.2-0.8,0.4c-0.7,0.5-1.5,1.4-1.6,1.8c-0.2,0.4-0.4,1.1-0.3,1.6
		c0,0.2,0.3,0.9,0.6,1.3c0.2,0.2,0.5,0.4,0.7,0.7c0.5,0.6,0.5,0.8,1.2,1.3c1.1,0.7,2.3,0.6,3.6,0.3l2.6-0.6l1.7-0.6
		c1.1-0.3,2.7-0.8,3-1.6c0.2-0.5,0-1,0-1.5c0-1.8,0.4-3.7,0.3-5.1c-1-0.2-2.1,0-3.2-0.1C1086.7,699.4,1086.3,699.2,1086,699.2z"/>
	<path d="M1110.6,692.7c1.1-0.5,1.9-1.2,3.5-1.4c0.4,0,1-0.1,1.4-0.1c0.2,0,0.6,0.2,0.9,0.4c1.1,0.4,1.6,0.8,2.3,1.7
		c0.2,0.3,0.4,0.5,0.5,0.7c0.1,0.4,0.2,1,0.3,1.5c0.1,0.4,0.4,1,0.2,1.4c-0.1,0.4-0.8,0.8-1.3,0.6c-0.6-0.2-0.4-1.4-0.7-2.4
		c-0.3-1-1.2-1.5-2.2-1.8c-0.4-0.1-0.7-0.2-1.2-0.1c-0.9,0-1,0.5-2.1,0.6c-0.9,0.6-1.6,1.2-2.4,2c-0.4,0.5-1.2,1-1.3,1.6
		c-0.2,0.7-0.1,1.7-0.1,2.6c0,1-0.1,2-0.1,2.9c0,2.2-0.1,4.4,0.2,6.1c1.8,0,3.8,0.4,5.5,0.4c0.8,0,1.5-0.3,2,0.2
		c0.2,0.3,0.4,1.2,0.1,1.6c-0.6,0.6-1.3,0.1-2-0.1c-1.1-0.2-2.5-0.1-4-0.2c-1.5-0.1-3.2-0.3-4.5-0.2c-0.8,0.1-1.7,0.4-2.8,0.4
		c-0.2,0-0.6-0.1-0.8-0.1c-0.6-0.1-1.4,0.2-1.7-0.3c0,0,0-0.1-0.1-0.1c-0.1-0.5,0.1-1.1,0.5-1.3c0.4-0.2,1,0.1,1.6,0.2
		c1.5,0.1,3.2,0,4.3-0.3c0.4-1.7,0.2-3.6,0.2-5.5c0-2.6,0.4-5.4,0.5-7.9c0-1.1,0.1-2.2-0.4-3.1c-1.3-0.1-2.4,0.2-3.9,0.3
		c-0.3,0-0.7,0.2-1,0.2c-0.7,0-1.5-0.1-2.2,0.2c-0.3-0.2-0.9-1-0.5-1.7c0.4-0.6,1.8-0.3,3.2-0.4c0.8-0.1,1.8-0.3,2.4-0.4
		c0.4,0,1,0.1,1.4,0c0.7-0.1,2.1-0.2,2.4,0.3c0.3,0.5,0,0.8-0.1,1.4c0,0.5,0,1,0,1.8C1109.5,693.8,1110.2,693.4,1110.6,692.7z"/>
	<path d="M1133,690.5c0.6,0.1,1.4,0.6,2,0.9c0.7,0.4,1.4,0.7,2,1c0.5,0.3,1,0.9,1.6,1.6c1.2,1.3,2.2,2.6,2.6,4.8
		c0.3,1.4,0.4,2.6,0.1,3.9c-0.2,1.1-0.5,1.8-1,2.7c-0.1,0.2-0.3,0.4-0.4,0.7c-0.4,0.6-0.6,1.2-1.2,1.8c-0.6,0.6-1.4,1.2-2.2,1.7
		c-0.4,0.3-0.8,0.6-1.1,0.8c-0.3,0.2-0.8,0.2-1.1,0.3c-0.4,0.1-0.7,0.4-1,0.4c-0.4,0.1-1-0.1-1.6-0.1c-0.4,0-0.8,0.2-1.1,0.2
		c-0.4,0-0.9-0.2-1.4-0.3c-0.8-0.2-1.3-0.4-1.9-0.6c-0.2-0.1-0.5,0-0.6-0.1c-0.2-0.1-0.3-0.3-0.5-0.4c-0.6-0.4-1-0.7-1.5-1.4
		c-0.3-0.4-0.7-0.8-0.9-1.2c-0.5-1-1-3-1.1-4.4c0-0.6,0-1.2,0-1.9c-0.1-1.1-0.1-2.1,0.3-3.1c0.2-0.5,0.6-1,0.9-1.5
		c0.8-1.2,1.2-1.6,2.2-2.5c0.8-0.7,1.5-1.4,2.3-2.2c0.9-0.8,1-1.2,2.6-1.2C1131.4,690.4,1132.4,690.3,1133,690.5z M1134,692.6
		c-0.4-0.2-0.8-0.5-1.2-0.6c-0.7-0.2-1.2,0.2-1.9,0c-1.7,1-3,2.3-4.6,3.4c-0.3,0.7-0.9,1.2-1.4,1.7c-0.2,1.1-0.8,1.5-1,2.4
		c-0.1,1.2,0.2,2.8,0.4,3.8c0.1,0.5,0.2,1,0.2,1.4c0.1,0.6,0.3,0.8,0.6,1.3c0.2,0.3,0.3,0.6,0.4,0.8c0.7,1,2.1,1.7,3.4,2
		c0.7,0.2,1.6,0.3,2.2,0.3c2.8,0.1,4.7-1.4,6-2.8c0.4-0.4,0.8-0.7,1-1c0.4-0.6,1.4-2.6,1.5-3.4c0-0.2-0.1-0.6-0.1-0.9
		c0-0.4,0.2-0.8,0.2-1.1c0-0.5-0.4-0.8-0.5-1.4c-0.2-0.6-0.1-1.2-0.3-1.6c-0.3-0.8-1.3-1.2-1.4-2.1c-0.7-0.4-1.5-1.3-2.4-1.9
		C1134.9,692.9,1134.4,692.8,1134,692.6z"/>
	<path d="M1164,710.5c-0.8-0.3-1.5-0.7-2-1.1c-0.2-0.3-0.5-0.6-0.7-1.1c-0.4-0.7-0.9-1.8-1.3-2.5c-0.6,0.3-1.1,1.1-1.7,1.7
		c-0.3,0.4-0.9,0.7-1.3,1.1c-0.8,0.7-1.2,1.4-2.5,1.6c-0.4,0.1-1-0.1-1.5-0.1c-0.3,0-0.6,0.2-0.8,0.2c-0.3,0-0.4-0.2-0.7-0.4
		c-0.2-0.2-0.5-0.2-0.7-0.4c-0.2-0.2-0.4-0.7-0.6-1c-0.3-0.7-0.6-1.2-0.7-2c-0.2-2.1,0.1-4.1-0.1-6.1c-0.1-2-0.1-3.8-0.3-5.6
		c-1.5-0.8-3.5,0.8-4.9-0.1c-0.2-0.4,0-0.8,0.2-1.2c0.9-0.5,3.1-0.4,4.5-0.8c0.5-0.1,1-0.6,1.6-0.4c0.5,0.2,0.9,1.8,0.3,2.3
		c-0.1,2.2-0.2,4.5-0.2,6.8c0,0.9,0.3,1.8,0.3,2.7c0,0.5-0.2,1-0.1,1.6c0.1,1,1.2,2.9,2.2,3c1.3,0.1,2.3-1,3.1-1.6
		c0.7-0.6,1.3-1.2,2-2c0.4-0.6,1.1-1.1,1.2-1.5c0.2-0.5,0.2-1.4,0.2-2.2c0.1-1.5,0.1-3,0.4-4.4c0.2-0.7,0.4-1.3,0.4-2
		c0-0.5-0.3-1.1-0.4-1.5c-1.3,0.2-2.7,0.4-3.8,0.5c-0.5-0.4-0.3-1.3,0-1.7c0.4-0.3,0.9-0.2,1.5-0.3c0.5,0,1-0.2,1.5-0.3
		c0.3,0,0.6,0,0.9,0c0.3-0.1,0.5-0.4,0.8-0.4c0.6,0,1.2,0.5,1.3,0.9c0.1,0.6-0.3,1-0.4,1.5c-0.2,0.8-0.1,2-0.2,3.1
		c0,0.5-0.1,1-0.2,1.5c-0.2,1.6-0.3,3.4-0.1,5.3c0.3,2.2,0.9,3.7,2.2,4.8c1,0.4,2.2,0.6,2.9,1.2C1166.7,711.2,1165,710.9,1164,710.5
		z"/>
	<path d="M1175.7,694.2c0.4,0.1,0.8-0.5,1-0.8c0.8-0.5,1.4-1.1,2.6-1.4c0.4-0.1,0.7,0,1.3,0c0.6,0,1.4-0.1,2-0.1
		c0.3,0,0.6,0.2,0.8,0.2c0.4,0.1,0.7,0,1,0.1c0.6,0.2,1.2,0.6,1.6,1.1c0.8,1,1.4,3.2,1.6,4.9c0.1,1-0.2,1.8-0.3,2.6
		c-0.1,1.4,0.2,2.7-0.1,3.9c0,0.2-0.2,0.6-0.2,0.7c0,0.4,0.2,1,0.2,1.4c0,0.3-0.2,0.6-0.1,0.8c0,0.5,0.4,0.9,0.6,1.3
		c1.1,0.2,2.6,0.2,3.7,0.5c0.5,0.1,1.1,0.3,1.1,1c0,0.4-0.5,0.9-0.9,1c-0.5,0.1-1.2-0.3-2-0.5c-1-0.2-2.2-0.2-3-0.1
		c-0.3,0-0.7,0.2-0.9,0.2c-0.4,0-0.6-0.2-1-0.2c-0.4,0-0.6,0.2-1,0.2c-0.6,0-1.4-0.5-1.4-0.8c-0.3-1.5,1.9-1.2,3.2-1.3
		c0.6-0.6,0.4-1.8,0.4-2.7c0-0.7,0.2-1.3,0.2-2c0-0.4,0-0.7,0-1.1c0-1.2,0.4-2.8,0.4-4.2c0-0.9-0.2-1.9-0.4-2.6
		c-0.3-0.8-1-1.9-1.7-2.2c-0.6-0.3-2.3-0.4-3.1-0.4c-1.8,0-2.7,0.6-3.7,1.6c-0.1,0.1-0.2,0.2-0.3,0.4c-0.5,0.4-1,1.2-1.5,1.8
		c-0.5,2.8-0.1,6,0.2,9c0.1,1.2,0,1.9,0.7,2.6c1.4,0.3,2.7-0.4,3.9-0.3c0.6,0.2,0.6,1,0.4,1.6c-0.4,0.5-1.2,0.3-2.1,0.3
		c-0.7,0-1.5,0.2-2.2,0.2c-0.2,0-0.8-0.1-1-0.1c-1.4-0.1-4.7,0.6-4.9-0.7c0-0.6,0.5-1,0.8-1.1c0.8-0.3,1.9,0.3,2.8,0.1
		c0.5-2.2-0.2-4.5-0.2-6.9c0-1.6,0-3.1,0-4.7c0-2.1,0.5-4.2,0.3-6.2c-0.6,0-1.5,0-2.4,0.2c-0.6,0.2-2,1.1-2.4,0.1
		c-0.2-0.6,0.4-1.1,0.8-1.6c1.6,0.1,3.3-0.4,4.7-0.4c0.5,0,0.9-0.2,1.3,0.3C1176.3,691.3,1175.8,692.6,1175.7,694.2z"/>
	<path d="M1209.8,687.9c0,0.3,0.1,0.6,0.1,1c0,0.7-0.2,1.3-0.3,2c0,0.5,0,1,0,1.4c0,0.4-0.2,0.9-0.2,1.3c0,0.6,0,1.2,0.1,1.7
		c0,1.4,0.1,2.7,0.2,4c0.1,0.9,0.4,1.7,0.5,2.6c0,0.4-0.2,0.8-0.2,1.1c0,0.8,0,1.6,0.1,2.4c0,0.8,0.1,1.5,0.4,2
		c1.7,0.2,2.6-0.4,4.2-0.4c0.2,0.2,0.6,1,0.3,1.5c-0.4,0.6-1.5,0.2-2.4,0.3c-0.2,0-0.5,0.2-0.8,0.2c-0.3,0.1-0.6,0-0.9,0.1
		c-0.7,0.2-1,0.6-1.4,0.5c-0.7-0.1-0.9-1-1.1-1.4c-1,0.4-1.8,1.2-2.9,1.6c-0.3,0.1-0.7,0.1-1.1,0.2c-0.6,0.2-1.1,0.5-1.6,0.6
		c-0.3,0.1-0.8,0.1-1.2,0.1c-1.2,0.1-1.5,0-2.3-0.5c-1-0.6-1.3-1-2.1-1.7c-0.9-0.9-1.1-1.2-1.5-2.6c-0.4-1.8-0.6-3.7-0.4-5.9
		c0.2-1.7,0.4-2.9,0.8-4.3c0.4-1.6,0.8-2.7,2-3.8c1.1-1,2.5-1.4,4.1-1.6c0.8-0.1,1.7-0.2,2.5-0.1c0.3,0,0.6,0.2,1,0.3
		c0.4,0.1,0.8,0.1,1.1,0.2c0.6,0.3,0.7,0.8,1.6,1.1c0.3-0.7,0.2-1.8,0.3-2.8c0-0.9,0.2-2.2-0.3-2.6c-0.4-0.3-1-0.2-1.6-0.3
		c-1-0.1-1.9-0.3-3.2-0.2c-0.7-0.4-0.9-2,0.4-2.1c0.2,0,0.5,0.3,1,0.4c1.5,0.4,3.7,0,5.2,0.4
		C1210.1,685.7,1209.8,686.8,1209.8,687.9z M1199.6,693.1c-0.7,0.5-0.8,0.6-1.3,1.3c-0.6,0.7-0.8,1-1.1,2c-0.1,0.4-0.2,0.8-0.4,1.1
		c-0.4,1.4-0.3,2.9-0.3,4.4c0,0.6-0.2,1-0.1,1.5c0,0.4,0.2,1,0.4,1.5c0.3,1,0.7,1.6,1.1,2.3c1.1,0.7,1.8,1.6,3.4,1.7
		c0.2,0,0.6,0,0.9-0.1c1.1-0.1,2.4-0.6,3.7-1.2c0.5-0.2,0.9-0.6,1.5-1c0.6-0.4,1.2-0.7,1.3-1.2c0.1-0.5,0-1.2-0.1-1.9
		c-0.1-1.4,0-2.5-0.2-3.8c-0.2-1.7-0.4-3.5-0.5-5c-0.8-0.4-1-1.5-1.7-2c-0.7-0.2-1.3-0.6-1.9-0.7
		C1202.2,691.8,1200.8,692.3,1199.6,693.1z"/>
</g>
</svg>
